<svg width="160" height="160" viewBox="0 0 160 160" fill="none" xmlns="http://www.w3.org/2000/svg">
<rect width="160" height="160" rx="36" fill="white"/>
<path d="M105.756 70.0478H94.1817V72.2972C94.1817 74.3982 92.4768 76.1033 90.3758 76.1033H83.7152C76.634 76.1033 70.496 72.5337 67.4518 67.306C61.6548 68.6205 57.329 73.807 57.329 79.9973C57.329 87.1885 63.159 93.0213 70.353 93.0213H121.976C129.17 93.0213 135 87.1913 135 79.9973C135 66.4178 130.058 53.9795 121.874 44.3792V44.3738C111.776 32.5295 96.7557 25 80.0027 25C78.6662 25 77.3325 25.0468 76.018 25.1485C76.7495 25.22 77.4425 25.33 78.119 25.4592C77.4452 25.33 76.7523 25.2173 76.018 25.1485C76.0125 25.1485 76.007 25.143 75.9988 25.1485C47.5307 27.2027 25 51.0178 25 80C25 84.873 25.638 89.603 26.8342 94.102V94.113C33.0795 117.626 54.5515 135 80.0027 135C94.6905 135 108.507 129.274 118.899 118.885C123.984 113.8 123.984 105.553 118.893 100.468C113.809 95.3835 105.561 95.3835 100.476 100.468C95.0067 105.938 87.7358 108.952 80.0055 108.952C64.039 108.952 51.0507 95.9638 51.0507 79.9973C51.0507 69.187 57.0073 59.7407 65.81 54.7687C67.5315 47.3932 74.896 41.852 83.718 41.852H90.3785C92.2733 41.852 93.8462 43.2353 94.1322 45.0585C94.1377 45.0943 94.1377 45.1245 94.1432 45.152C94.1487 45.1933 94.1487 45.229 94.1542 45.2647C94.1735 45.372 94.1763 45.4765 94.1763 45.5838C94.1818 45.636 94.1817 45.6608 94.1817 45.6608V47.9103H105.756C107.241 47.9103 108.452 49.1175 108.452 50.6052V51.0975C108.452 52.588 107.244 53.7897 105.756 53.7897H94.1817V64.16H105.756C107.241 64.16 108.452 65.3672 108.452 66.8522V67.35C108.452 68.835 107.244 70.0422 105.756 70.0422V70.0478Z" fill="#8ABA41"/>
</svg>
