<svg width="18" height="18" viewBox="0 0 18 18" fill="none" xmlns="http://www.w3.org/2000/svg">
<g opacity="1" clip-path="url(#clip0_584_672)">
<path fill-rule="evenodd" clip-rule="evenodd" d="M15.327 4.43086C14.8872 4.42715 14.4624 4.59038 14.1383 4.88761L9.0007 9.74538L3.86627 4.88429C3.54328 4.58645 3.12006 4.42102 2.68071 4.42088C2.24135 4.42074 1.81803 4.58589 1.49484 4.88352C1.33942 5.02586 1.21531 5.19898 1.13037 5.39186C1.04544 5.58474 1.00154 5.79318 1.00147 6.00393C1.00141 6.21468 1.04517 6.42315 1.12998 6.61609C1.21478 6.80902 1.33879 6.98221 1.49412 7.12466L7.81446 13.1061C8.13615 13.4052 8.55907 13.5715 8.99831 13.5717C9.43755 13.5718 9.86059 13.4058 10.1825 13.1069L16.509 7.13524C16.6644 6.99289 16.7885 6.81978 16.8734 6.6269C16.9584 6.43402 17.0023 6.22558 17.0023 6.01483C17.0024 5.80407 16.9586 5.59561 16.8738 5.40267C16.789 5.20974 16.665 5.03654 16.5097 4.8941C16.1878 4.59702 15.765 4.43345 15.327 4.43657" fill="#FFFDFA"/>
</g>
<defs>
<clipPath id="clip0_584_672">
<rect width="16" height="16" fill="white" transform="translate(0.998047 16.9976) rotate(-89.9814)"/>
</clipPath>
</defs>
</svg>
