<svg width="17" height="18" viewBox="0 0 17 18" fill="none" xmlns="http://www.w3.org/2000/svg">
<g opacity="1" clip-path="url(#clip0_584_672)">
<path fill-rule="evenodd" clip-rule="evenodd" d="M1.67511 13.5702C2.11488 13.5738 2.53967 13.4105 2.86377 13.1133L8.00075 8.25487L13.1358 13.1153C13.4588 13.4131 13.882 13.5785 14.3214 13.5786C14.7607 13.5787 15.1841 13.4135 15.5072 13.1158C15.6626 12.9734 15.7867 12.8003 15.8716 12.6074C15.9565 12.4145 16.0004 12.2061 16.0004 11.9953C16.0005 11.7846 15.9567 11.5761 15.8719 11.3832C15.787 11.1903 15.663 11.0171 15.5077 10.8747L9.18657 4.89397C8.86485 4.59492 8.44191 4.42865 8.00266 4.42857C7.56342 4.42848 7.14041 4.59457 6.81857 4.89349L0.492796 10.8659C0.337396 11.0083 0.2133 11.1814 0.128389 11.3743C0.0434784 11.5672 -0.000390756 11.7756 -0.000433185 11.9864C-0.000475614 12.1972 0.0433096 12.4056 0.128143 12.5985C0.212976 12.7915 0.337002 12.9646 0.492345 13.1071C0.814266 13.4041 1.2371 13.5676 1.67511 13.5645" fill="#FFFDFA"/>
</g>
<defs>
<clipPath id="clip0_584_672">
<rect width="16" height="16" fill="white" transform="translate(16.002 1.00171) rotate(90.0115)"/>
</clipPath>
</defs>
</svg>
