<svg width="6" height="4" viewBox="0 0 6 4" fill="none" xmlns="http://www.w3.org/2000/svg">
<g clip-path="url(#clip0_114_84)">
<path d="M0.477877 3.34127H2.79199C2.91066 3.53981 3.08986 3.70624 3.31002 3.8224C3.53017 3.93857 3.78287 4 4.04047 4C4.2981 4 4.55077 3.93857 4.77093 3.8224C4.9911 3.70624 5.1703 3.53981 5.28897 3.34127H5.52213C5.64883 3.34114 5.7703 3.29739 5.85987 3.2196C5.94947 3.14182 5.99987 3.03635 6 2.92634V0.414928C5.99987 0.30492 5.94947 0.199452 5.85987 0.121664C5.7703 0.0438768 5.64883 0.000122028 5.52213 0H0.477877C0.35118 0.000122028 0.229711 0.0438768 0.140122 0.121664C0.0505333 0.199452 0.000140541 0.30492 0 0.414928V2.9264C0.000158104 3.0364 0.0505583 3.14185 0.140145 3.21962C0.229732 3.2974 0.35119 3.34114 0.477877 3.34127ZM1.0885 2.71948V2.2815H2.75509C2.68395 2.41972 2.64324 2.56827 2.63506 2.71948H1.0885ZM5.13513 3.29788H2.94584C2.8354 3.12283 2.78292 2.92465 2.79419 2.72529C2.80547 2.52594 2.88007 2.33318 3.00973 2.16836H5.07123C5.2009 2.33317 5.2755 2.52593 5.2868 2.72529C5.29807 2.92465 5.24557 3.12283 5.13513 3.29788ZM3.13888 2.03005C3.25522 1.92412 3.39513 1.83979 3.5501 1.78217C3.70507 1.72455 3.8719 1.69484 4.04047 1.69484C4.20907 1.69484 4.3759 1.72455 4.53087 1.78217C4.68583 1.83979 4.82573 1.92412 4.9421 2.03005H3.13888ZM4.04047 3.86169C3.8488 3.86168 3.6597 3.82329 3.48787 3.74949C3.31606 3.67569 3.16616 3.56848 3.04983 3.43619H5.03113C4.9148 3.56848 4.7649 3.67569 4.5931 3.74949C4.42127 3.82329 4.23217 3.86168 4.04047 3.86169ZM5.52213 3.20296H5.35983C5.4778 2.927 5.47703 2.62334 5.35767 2.34784C5.2383 2.07233 5.00837 1.84352 4.71017 1.7035C4.41197 1.56349 4.06557 1.52169 3.7347 1.58579C3.40383 1.6499 3.11074 1.8156 2.90938 2.0524C2.90514 2.05636 2.90145 2.06073 2.8984 2.06544C2.87746 2.09068 2.85761 2.1166 2.83884 2.1432H1.00885C0.987727 2.1432 0.967467 2.15048 0.95253 2.16345C0.937593 2.17642 0.929203 2.19401 0.929203 2.21235V2.78864C0.929203 2.80698 0.937593 2.82457 0.95253 2.83754C0.967467 2.85051 0.987727 2.8578 1.00885 2.8578H2.63646C2.64516 2.97582 2.67368 3.0921 2.72113 3.20296H0.477877C0.39341 3.20288 0.312433 3.1737 0.252708 3.12185C0.192982 3.06999 0.159387 2.99968 0.159292 2.92634V1.28425H5.8407V2.92634C5.8406 2.99968 5.80703 3.06999 5.7473 3.12185C5.68757 3.1737 5.6066 3.20288 5.52213 3.20296ZM0.159292 1.14594V0.750396H5.8407V1.14594H0.159292ZM0.477877 0.13831H5.52213C5.6066 0.138392 5.68757 0.167562 5.7473 0.21942C5.80703 0.271278 5.8406 0.34159 5.8407 0.414928V0.612088H0.159292V0.414928C0.159387 0.34159 0.192982 0.271278 0.252708 0.21942C0.312433 0.167562 0.39341 0.138392 0.477877 0.13831Z" fill="black"/>
<path d="M3.334 2.5338C3.44773 2.5338 3.46683 2.5874 3.4707 2.63392C3.47167 2.65649 3.48947 2.6835 3.56867 2.6835C3.62917 2.6835 3.66667 2.67106 3.66667 2.60912C3.66667 2.48405 3.53073 2.39999 3.32846 2.39999C3.11973 2.39999 3 2.49141 3 2.65081V2.94916C3 3.10857 3.1192 3.19999 3.32708 3.19999C3.5302 3.19999 3.66667 3.11252 3.66667 2.98231C3.66667 2.92038 3.62867 2.90793 3.5673 2.90793C3.49093 2.90793 3.47263 2.9348 3.47073 2.9573C3.4672 2.99533 3.46063 3.0662 3.3368 3.0662C3.24334 3.0662 3.19596 3.02682 3.19596 2.94916V2.65083C3.19594 2.57317 3.2424 2.5338 3.334 2.5338Z" fill="black"/>
<path d="M4.2306 2.40005C4.1904 2.40005 4.1769 2.41758 4.17266 2.43213L4.00056 2.99141L3.82733 2.43223C3.8231 2.41752 3.8096 2.39999 3.7694 2.39999C3.7265 2.39999 3.66666 2.42422 3.66666 2.46368C3.66703 2.46771 3.66783 2.4717 3.66913 2.47557L3.89583 3.1489C3.90736 3.18042 3.9475 3.19999 4.0006 3.19999C4.0431 3.19999 4.09296 3.18652 4.1054 3.14873L4.3308 2.47579L4.3315 2.47331C4.33256 2.47018 4.33316 2.46693 4.33333 2.46366C4.33333 2.42487 4.27246 2.40005 4.2306 2.40005Z" fill="black"/>
<path d="M4.89727 2.40005C4.85707 2.40005 4.84357 2.41758 4.83933 2.43213L4.66723 2.99141L4.494 2.43223C4.48977 2.41752 4.47627 2.39999 4.43607 2.39999C4.39317 2.39999 4.33333 2.42422 4.33333 2.46368C4.3337 2.46771 4.3345 2.4717 4.3358 2.47557L4.5625 3.1489C4.57403 3.18042 4.61417 3.19999 4.66727 3.19999C4.70977 3.19999 4.75963 3.18652 4.77207 3.14873L4.99747 2.47579L4.99817 2.47331C4.99923 2.47018 4.99983 2.46693 5 2.46366C5 2.42487 4.93913 2.40005 4.89727 2.40005Z" fill="black"/>
</g>
<defs>
<clipPath id="clip0_114_84">
<rect width="6" height="4" fill="white"/>
</clipPath>
</defs>
</svg>
