<svg width="16" height="16" viewBox="0 0 16 16" fill="none" xmlns="http://www.w3.org/2000/svg">
<path d="M2.4 6.93333C2.29333 6.93333 2.24 6.88 2.18667 6.82667C1.97333 6.50667 0 3.62667 0 2.4C0 1.06667 1.06667 0 2.4 0C3.73333 0 4.8 1.06667 4.8 2.4C4.8 3.62667 2.82667 6.50667 2.61333 6.82667C2.56 6.88 2.50667 6.93333 2.4 6.93333ZM2.4 0.533333C1.38667 0.533333 0.533333 1.38667 0.533333 2.4C0.533333 3.2 1.70667 5.17333 2.4 6.18667C3.09333 5.17333 4.26667 3.2 4.26667 2.4C4.26667 1.38667 3.41333 0.533333 2.4 0.533333ZM13.0667 16C12.96 16 12.9067 15.9467 12.8533 15.84C12.7467 15.6267 10.1333 11.04 10.1333 9.44C10.1333 7.73333 11.4667 6.4 13.0667 6.4C14.6667 6.4 16 7.78667 16 9.44C16 11.04 13.3867 15.6267 13.28 15.84C13.2267 15.9467 13.1733 16 13.0667 16ZM13.0667 6.93333C11.7333 6.93333 10.6667 8.05333 10.6667 9.44C10.6667 10.56 12.2133 13.6533 13.0667 15.1467C13.92 13.6 15.4667 10.5067 15.4667 9.44C15.4667 8.05333 14.4 6.93333 13.0667 6.93333ZM12 16C11.6267 16 11.2533 16 10.88 15.9467C10.72 15.9467 10.6133 15.7867 10.6667 15.6267C10.72 15.4667 10.8267 15.36 10.9867 15.4133C11.3067 15.4667 11.6267 15.4667 12 15.4667C12.16 15.4667 12.2667 15.5733 12.2667 15.7333C12.2667 15.8933 12.16 16 12 16ZM9.92 15.6267H9.81333C9.44 15.4667 9.12 15.2533 8.85333 15.04C8.74667 14.9333 8.74667 14.7733 8.85333 14.6667C8.96 14.56 9.12 14.56 9.22667 14.6667C9.44 14.88 9.70667 15.04 10.0267 15.2C10.1867 15.2533 10.24 15.4133 10.1867 15.5733C10.1333 15.5733 10.0267 15.6267 9.92 15.6267ZM8.37333 14.24C8.26667 14.24 8.21333 14.1867 8.16 14.08C8 13.76 7.84 13.44 7.73333 13.0133C7.68 12.8533 7.78667 12.7467 7.89333 12.6933C8.05333 12.64 8.16 12.7467 8.21333 12.8533C8.32 13.2267 8.42667 13.5467 8.58667 13.8133C8.64 13.92 8.58667 14.08 8.48 14.1867C8.48 14.24 8.42667 14.24 8.37333 14.24ZM7.78667 12.2133C7.68 12.2133 7.52 12.1067 7.52 12C7.46667 11.6267 7.41333 11.3067 7.36 10.9333C7.36 10.7733 7.46667 10.6667 7.57333 10.6133C7.73333 10.6133 7.84 10.72 7.89333 10.8267C7.94667 11.2 8 11.52 8.05333 11.8933C8.05333 12.0533 7.94667 12.2133 7.78667 12.2133ZM7.52 10.1333C7.41333 10.1333 7.25333 10.0267 7.25333 9.92C7.2 9.49333 7.14667 9.17333 7.04 8.90667C6.98667 8.74667 7.09333 8.64 7.25333 8.58667C7.41333 8.53333 7.52 8.64 7.57333 8.8C7.68 9.12 7.73333 9.44 7.78667 9.86667C7.78667 9.97333 7.68 10.08 7.52 10.1333ZM6.88 8.05333C6.77333 8.05333 6.66667 8 6.66667 7.89333C6.50667 7.57333 6.29333 7.36 6.08 7.14667C5.97333 7.04 5.97333 6.88 6.08 6.77333C6.18667 6.66667 6.34667 6.66667 6.45333 6.77333C6.72 7.04 6.98667 7.30667 7.14667 7.68C7.2 7.78667 7.14667 7.94667 7.04 8.05333H6.88ZM5.33333 6.72H5.22667C4.96 6.61333 4.64 6.50667 4.26667 6.50667C4.10667 6.50667 4 6.34667 4.05333 6.18667C4.05333 6.02667 4.21333 5.92 4.37333 5.97333C4.74667 6.02667 5.12 6.13333 5.44 6.24C5.6 6.29333 5.65333 6.45333 5.6 6.56C5.54667 6.61333 5.44 6.72 5.33333 6.72Z" fill="black"/>
<path d="M2.40001 3.20001C1.97334 3.20001 1.60001 2.82667 1.60001 2.40001C1.60001 1.97334 1.97334 1.60001 2.40001 1.60001C2.82667 1.60001 3.20001 1.97334 3.20001 2.40001C3.20001 2.82667 2.82667 3.20001 2.40001 3.20001ZM2.40001 2.13334C2.24001 2.13334 2.13334 2.24001 2.13334 2.40001C2.13334 2.56001 2.24001 2.66667 2.40001 2.66667C2.56001 2.66667 2.66667 2.56001 2.66667 2.40001C2.66667 2.24001 2.56001 2.13334 2.40001 2.13334ZM13.0667 10.6667C12.32 10.6667 11.7333 10.08 11.7333 9.33334C11.7333 8.58667 12.32 8.00001 13.0667 8.00001C13.8133 8.00001 14.4 8.58667 14.4 9.33334C14.4 10.08 13.8133 10.6667 13.0667 10.6667ZM13.0667 8.53334C12.64 8.53334 12.2667 8.90667 12.2667 9.33334C12.2667 9.76001 12.64 10.1333 13.0667 10.1333C13.4933 10.1333 13.8667 9.76001 13.8667 9.33334C13.8667 8.90667 13.4933 8.53334 13.0667 8.53334Z" fill="black"/>
</svg>
