<svg width="190" height="368" viewBox="0 0 190 368" fill="none" xmlns="http://www.w3.org/2000/svg">
<g clip-path="url(#clip0_301_2)">
<path d="M175.2 50.6299V378.67H172.795L148.532 378.63H148.381L101.54 378.54H100.498L85.5408 378.52L82.7198 378.51H82.5683L41.909 378.44L35.7272 378.41L34.6764 378.4L14.3799 378.3V50.6299H175.2Z" fill="#455A64"/>
<path d="M82.644 73.0701L70.8296 72.9501L58.9774 72.9001L35.2444 72.8101H34.3925V73.7201L34.5439 113.72V114.48H35.235L59.1383 114.16L82.6819 113.73L58.7975 113.3L35.9355 113V113.73L35.235 112.99H35.9355L36.087 74.6601H35.235L36.087 73.7701V74.6601L58.9679 74.5801L70.8202 74.5201L82.0855 74.4101V73.7701L82.6819 74.4001H82.0855L82.1896 83.6501L82.3317 93.5801L82.6819 113.71L83.0227 93.8801L83.1647 83.8801L83.2783 73.8001V73.1701L82.644 73.0701Z" fill="#37474F"/>
<path d="M148.949 83.7901L149.062 73.7101V73.0801H148.456L136.604 72.9601L124.79 72.9001L101.066 72.8101H100.176V73.7201L100.328 113.72V114.48H101.019L124.913 114.16L148.456 113.73L124.572 113.3L101.729 113V113.73L101.019 112.99H101.729L101.871 74.6601H101.019L101.871 73.7701V74.6601L124.742 74.5801L136.604 74.5201L147.869 74.4101V73.7701L148.456 74.4001H147.869L147.974 83.6501L148.116 93.5801L148.456 113.71L148.807 93.8801L148.949 83.8801" fill="#37474F"/>
<path d="M82.644 135.22L35.1971 135.13H34.3451V136.02L34.4492 193.41C34.4492 202.97 34.4871 212.533 34.5628 222.1L34.7238 250.8V251.3H35.1782L58.9963 251.07L82.663 250.81L58.8449 250.55L35.6704 250.33V250.82L35.1971 250.32H35.6704L35.8314 222.11C35.9008 212.55 35.9387 202.987 35.945 193.42L36.0491 136.93H35.1971L36.0491 136.03V136.93L81.8867 136.83V136.03L82.644 136.83H81.8867C81.8867 146.08 81.8867 155.33 81.9814 164.59L82.1707 193.21L82.644 250.81L83.1173 193.63L83.3067 164.85C83.3824 155.26 83.3635 145.64 83.4014 136.03V135.23L82.644 135.22Z" fill="#37474F"/>
<path d="M148.456 135.22L101.019 135.13H100.176V136.02L100.29 193.41C100.29 202.97 100.328 212.533 100.404 222.1L100.564 250.8V251.3H101.028L124.846 251.07L148.513 250.81L124.695 250.55L101.483 250.33V250.82L101.019 250.32H101.483L101.644 222.11C101.719 212.55 101.757 202.987 101.757 193.42L101.871 136.93H101.019L101.871 136.03V136.93L147.708 136.83V136.03L148.456 136.83H147.708C147.708 146.08 147.708 155.33 147.794 164.59L147.992 193.21L148.456 250.81L148.939 193.63L149.119 164.85C149.204 155.26 149.185 145.64 149.214 136.03V135.23L148.456 135.22Z" fill="#37474F"/>
<path d="M82.644 272.33L35.1971 272.23H34.3451V273.13L34.4492 330.52C34.4492 340.08 34.4871 349.643 34.5628 359.21L34.6575 378.01V378.37H35.7083V377.99L35.803 359.2C35.8724 349.64 35.9103 340.077 35.9166 330.51L36.0207 274.01H35.1687L36.0207 273.12V274.01L81.8583 273.91V273.12L82.6156 273.91H81.8583C81.8583 283.17 81.8583 292.42 81.953 301.68L82.1896 330.33L82.5777 377.92V378.5H82.7292V377.92L83.1173 330.74L83.3067 301.98C83.3824 292.37 83.3635 282.76 83.4014 273.15V272.33H82.644Z" fill="#37474F"/>
<path d="M148.456 272.33L101.019 272.23H100.176V273.13L100.29 330.52C100.29 340.08 100.328 349.643 100.404 359.21L100.498 377.87V378.51H101.54V377.87L101.634 359.21C101.71 349.65 101.748 340.087 101.748 330.52L101.861 274.02H101.009L101.861 273.13V274.02L147.699 273.92V273.13L148.447 273.92H147.699C147.699 283.18 147.699 292.43 147.784 301.69L147.983 330.31L148.362 377.79V378.6H148.513V377.79L148.911 330.72L149.091 301.96C149.176 292.35 149.157 282.74 149.185 273.13V272.33H148.456Z" fill="#37474F"/>
<path d="M189.589 35V378.64L175.2 378.67V50.63H14.3799V378.3L0 378.23V35H189.589Z" fill="#37474F"/>
<path d="M169.472 250.8H154.884V292.98H169.472V250.8Z" fill="#8ABA41"/>
<path opacity="0.1" d="M168.052 258.15C168.019 259.37 167.646 260.552 166.98 261.549C166.314 262.547 165.384 263.315 164.308 263.757C163.231 264.2 162.055 264.297 160.926 264.038C159.797 263.778 158.765 263.173 157.96 262.298C157.155 261.423 156.612 260.316 156.398 259.117C156.185 257.917 156.311 256.678 156.76 255.554C157.21 254.429 157.963 253.47 158.926 252.795C159.888 252.12 161.018 251.76 162.173 251.76C162.957 251.772 163.73 251.946 164.449 252.274C165.169 252.601 165.82 253.075 166.366 253.668C166.912 254.262 167.342 254.963 167.631 255.732C167.92 256.501 168.064 257.322 168.052 258.15Z" fill="black"/>
<path d="M127.158 0H65V23.94H127.158V0Z" fill="#8ABA41"/>
<path d="M75.4417 18.2302V5.70022C75.4404 5.54666 75.4683 5.39439 75.5236 5.25238C75.5789 5.11037 75.6606 4.98151 75.7638 4.87339C75.8671 4.76527 75.9898 4.68008 76.1247 4.62286C76.2596 4.56564 76.4039 4.53754 76.5493 4.54021H83.1192C83.4105 4.54278 83.6894 4.66551 83.8964 4.88222C84.1033 5.09893 84.2218 5.39246 84.2268 5.70022C84.2244 6.01161 84.1076 6.30984 83.9009 6.5319C83.6942 6.75395 83.4139 6.88244 83.1192 6.89021H77.6758V10.8002H82.3524C82.6486 10.8002 82.9328 10.9245 83.1423 11.1458C83.3518 11.3671 83.4694 11.6673 83.4694 11.9802C83.4694 12.2932 83.3518 12.5933 83.1423 12.8146C82.9328 13.0359 82.6486 13.1602 82.3524 13.1602H77.6758V17.0602H83.1192C83.4154 17.0602 83.6996 17.1845 83.9091 17.4058C84.1186 17.6271 84.2362 17.9273 84.2362 18.2402C84.2362 18.5532 84.1186 18.8533 83.9091 19.0746C83.6996 19.2959 83.4154 19.4202 83.1192 19.4202H76.6061C76.4543 19.4285 76.3026 19.4037 76.1603 19.3473C76.018 19.2909 75.8882 19.2043 75.779 19.0926C75.6698 18.981 75.5835 18.8469 75.5254 18.6985C75.4674 18.5501 75.4389 18.3907 75.4417 18.2302Z" fill="white"/>
<path d="M97.4423 6.54991L93.6556 12.0299L97.4423 17.5499C97.56 17.724 97.6303 17.9289 97.6455 18.1422C97.6607 18.3556 97.6202 18.5692 97.5284 18.76C97.4367 18.9507 97.2972 19.1112 97.1251 19.2241C96.953 19.3369 96.7549 19.3977 96.5524 19.3999C96.3768 19.3972 96.2042 19.3516 96.0482 19.2665C95.8922 19.1815 95.7569 19.0594 95.6531 18.9099L92.2734 14.0099L88.8749 18.9099C88.7735 19.0574 88.6414 19.1782 88.4887 19.2632C88.3361 19.3481 88.167 19.3949 87.9945 19.3999C87.7613 19.4038 87.5339 19.3226 87.3508 19.1699C87.1138 18.991 86.9531 18.7206 86.9035 18.4174C86.8539 18.1142 86.9194 17.8025 87.0857 17.5499L90.8724 12.0299L87.0857 6.54991C87.0024 6.42607 86.9431 6.286 86.9113 6.13781C86.8795 5.98962 86.8758 5.83623 86.9004 5.68653C86.9251 5.53682 86.9776 5.39376 87.0549 5.26561C87.1322 5.13746 87.2328 5.02676 87.3508 4.93991C87.4638 4.84344 87.5946 4.773 87.7348 4.73312C87.8751 4.69324 88.0217 4.68479 88.1653 4.70834C88.3088 4.73188 88.4461 4.78689 88.5683 4.86983C88.6905 4.95277 88.795 5.0618 88.8749 5.18991L92.2734 10.0799L95.6531 5.18991C95.7358 5.06241 95.8424 4.95419 95.9663 4.87194C96.0902 4.78969 96.2287 4.73517 96.3733 4.71173C96.518 4.6883 96.6656 4.69646 96.8071 4.73571C96.9487 4.77496 97.081 4.84446 97.1961 4.93991C97.3127 5.02828 97.4116 5.14012 97.4871 5.26899C97.5626 5.39786 97.6132 5.54123 97.6361 5.69085C97.659 5.84047 97.6536 5.9934 97.6203 6.14083C97.5871 6.28825 97.5266 6.42728 97.4423 6.54991Z" fill="white"/>
<path d="M101.021 5.70022C101.019 5.54666 101.047 5.39439 101.103 5.25238C101.158 5.11037 101.24 4.98151 101.343 4.87339C101.446 4.76527 101.569 4.68008 101.704 4.62286C101.839 4.56564 101.983 4.53754 102.128 4.54021C102.423 4.53753 102.707 4.65794 102.918 4.87521C103.129 5.09247 103.25 5.389 103.255 5.70022V18.2302C103.254 18.3852 103.223 18.5384 103.166 18.681C103.109 18.8237 103.026 18.953 102.921 19.0617C102.816 19.1703 102.692 19.2561 102.556 19.3142C102.42 19.3723 102.275 19.4015 102.128 19.4002C101.982 19.4029 101.837 19.3745 101.701 19.3167C101.566 19.2588 101.443 19.1728 101.339 19.0636C101.236 18.9544 101.154 18.8243 101.1 18.6811C101.045 18.538 101.018 18.3846 101.021 18.2302V5.70022Z" fill="white"/>
<path d="M115.666 6.89021H112.475V18.2302C112.478 18.3846 112.451 18.538 112.396 18.6811C112.341 18.8243 112.26 18.9544 112.157 19.0636C112.053 19.1728 111.93 19.2588 111.795 19.3167C111.659 19.3745 111.514 19.4029 111.368 19.4002C111.074 19.4002 110.792 19.2769 110.585 19.0575C110.377 18.8381 110.26 18.5405 110.26 18.2302V6.89021H107.089C106.942 6.8889 106.797 6.85709 106.662 6.79658C106.527 6.73606 106.404 6.64805 106.302 6.53754C106.199 6.42704 106.118 6.29622 106.063 6.15255C106.008 6.00888 105.98 5.85518 105.981 5.70022C105.98 5.54666 106.008 5.39439 106.063 5.25238C106.118 5.11037 106.2 4.98151 106.303 4.87339C106.407 4.76527 106.529 4.68008 106.664 4.62286C106.799 4.56564 106.943 4.53754 107.089 4.54021H115.666C115.811 4.53889 115.954 4.56793 116.089 4.62563C116.223 4.68334 116.345 4.76857 116.448 4.87642C116.551 4.98427 116.633 5.11259 116.689 5.25398C116.744 5.39538 116.773 5.54704 116.773 5.70022C116.771 6.01161 116.654 6.30984 116.447 6.5319C116.241 6.75395 115.96 6.88244 115.666 6.89021Z" fill="white"/>
</g>
<defs>
<clipPath id="clip0_301_2">
<rect width="190" height="368" fill="white"/>
</clipPath>
</defs>
</svg>
