<svg width="46" height="16" viewBox="0 0 46 16" fill="none" xmlns="http://www.w3.org/2000/svg">
<path d="M3 9.5C2.60218 9.5 2.22064 9.34196 1.93934 9.06066C1.65804 8.77936 1.5 8.39782 1.5 8C1.5 7.60218 1.65804 7.22064 1.93934 6.93934C2.22064 6.65804 2.60218 6.5 3 6.5C3.39782 6.5 3.77936 6.65804 4.06066 6.93934C4.34196 7.22064 4.5 7.60218 4.5 8C4.5 8.39782 4.34196 8.77936 4.06066 9.06066C3.77936 9.34196 3.39782 9.5 3 9.5ZM8 9.5C7.60218 9.5 7.22064 9.34196 6.93934 9.06066C6.65804 8.77936 6.5 8.39782 6.5 8C6.5 7.60218 6.65804 7.22064 6.93934 6.93934C7.22064 6.65804 7.60218 6.5 8 6.5C8.39782 6.5 8.77936 6.65804 9.06066 6.93934C9.34196 7.22064 9.5 7.60218 9.5 8C9.5 8.39782 9.34196 8.77936 9.06066 9.06066C8.77936 9.34196 8.39782 9.5 8 9.5ZM13 9.5C12.6022 9.5 12.2206 9.34196 11.9393 9.06066C11.658 8.77936 11.5 8.39782 11.5 8C11.5 7.60218 11.658 7.22064 11.9393 6.93934C12.2206 6.65804 12.6022 6.5 13 6.5C13.3978 6.5 13.7794 6.65804 14.0607 6.93934C14.342 7.22064 14.5 7.60218 14.5 8C14.5 8.39782 14.342 8.77936 14.0607 9.06066C13.7794 9.34196 13.3978 9.5 13 9.5Z" fill="black"/>
<mask id="mask0_107_32" style="mask-type:luminance" maskUnits="userSpaceOnUse" x="15" y="0" width="16" height="16">
<path d="M31 0H15V16H31V0Z" fill="white"/>
</mask>
<g mask="url(#mask0_107_32)">
<path d="M18 9.5C17.6022 9.5 17.2206 9.34196 16.9393 9.06066C16.658 8.77936 16.5 8.39782 16.5 8C16.5 7.60218 16.658 7.22064 16.9393 6.93934C17.2206 6.65804 17.6022 6.5 18 6.5C18.3978 6.5 18.7794 6.65804 19.0607 6.93934C19.342 7.22064 19.5 7.60218 19.5 8C19.5 8.39782 19.342 8.77936 19.0607 9.06066C18.7794 9.34196 18.3978 9.5 18 9.5ZM23 9.5C22.6022 9.5 22.2206 9.34196 21.9393 9.06066C21.658 8.77936 21.5 8.39782 21.5 8C21.5 7.60218 21.658 7.22064 21.9393 6.93934C22.2206 6.65804 22.6022 6.5 23 6.5C23.3978 6.5 23.7794 6.65804 24.0607 6.93934C24.342 7.22064 24.5 7.60218 24.5 8C24.5 8.39782 24.342 8.77936 24.0607 9.06066C23.7794 9.34196 23.3978 9.5 23 9.5ZM28 9.5C27.6022 9.5 27.2206 9.34196 26.9393 9.06066C26.658 8.77936 26.5 8.39782 26.5 8C26.5 7.60218 26.658 7.22064 26.9393 6.93934C27.2206 6.65804 27.6022 6.5 28 6.5C28.3978 6.5 28.7794 6.65804 29.0607 6.93934C29.342 7.22064 29.5 7.60218 29.5 8C29.5 8.39782 29.342 8.77936 29.0607 9.06066C28.7794 9.34196 28.3978 9.5 28 9.5Z" fill="black"/>
</g>
<mask id="mask1_107_32" style="mask-type:luminance" maskUnits="userSpaceOnUse" x="30" y="0" width="16" height="16">
<path d="M46 0H30V16H46V0Z" fill="white"/>
</mask>
<g mask="url(#mask1_107_32)">
<path d="M33 9.5C32.6022 9.5 32.2206 9.34196 31.9393 9.06066C31.658 8.77936 31.5 8.39782 31.5 8C31.5 7.60218 31.658 7.22064 31.9393 6.93934C32.2206 6.65804 32.6022 6.5 33 6.5C33.3978 6.5 33.7794 6.65804 34.0607 6.93934C34.342 7.22064 34.5 7.60218 34.5 8C34.5 8.39782 34.342 8.77936 34.0607 9.06066C33.7794 9.34196 33.3978 9.5 33 9.5ZM38 9.5C37.6022 9.5 37.2206 9.34196 36.9393 9.06066C36.658 8.77936 36.5 8.39782 36.5 8C36.5 7.60218 36.658 7.22064 36.9393 6.93934C37.2206 6.65804 37.6022 6.5 38 6.5C38.3978 6.5 38.7794 6.65804 39.0607 6.93934C39.342 7.22064 39.5 7.60218 39.5 8C39.5 8.39782 39.342 8.77936 39.0607 9.06066C38.7794 9.34196 38.3978 9.5 38 9.5ZM43 9.5C42.6022 9.5 42.2206 9.34196 41.9393 9.06066C41.658 8.77936 41.5 8.39782 41.5 8C41.5 7.60218 41.658 7.22064 41.9393 6.93934C42.2206 6.65804 42.6022 6.5 43 6.5C43.3978 6.5 43.7794 6.65804 44.0607 6.93934C44.342 7.22064 44.5 7.60218 44.5 8C44.5 8.39782 44.342 8.77936 44.0607 9.06066C43.7794 9.34196 43.3978 9.5 43 9.5Z" fill="black"/>
</g>
</svg>
