<svg width="145" height="40" viewBox="0 0 145 40" fill="none" xmlns="http://www.w3.org/2000/svg">
<g clip-path="url(#clip0_14_2)">
<path d="M29.366 16.381H25.157V17.199C25.157 17.963 24.537 18.583 23.773 18.583H21.351C18.776 18.583 16.544 17.285 15.437 15.384C13.329 15.862 11.756 17.748 11.756 19.999C11.756 22.614 13.876 24.735 16.492 24.735H35.264C37.88 24.735 40 22.615 40 19.999C40 15.061 38.203 10.538 35.227 7.047V7.045C31.555 2.738 26.093 0 20.001 0C19.515 0 19.03 0.017 18.552 0.054C18.818 0.08 19.07 0.12 19.316 0.167C19.071 0.12 18.819 0.079 18.552 0.054C18.55 0.054 18.548 0.052 18.545 0.054C8.193 0.801 0 9.461 0 20C0 21.772 0.232 23.492 0.667 25.128V25.132C2.938 33.682 10.746 40 20.001 40C25.342 40 30.366 37.918 34.145 34.14C35.994 32.291 35.994 29.292 34.143 27.443C32.294 25.594 29.295 25.594 27.446 27.443C25.457 29.432 22.813 30.528 20.002 30.528C14.196 30.528 9.473 25.805 9.473 19.999C9.473 16.068 11.639 12.633 14.84 10.825C15.466 8.143 18.144 6.128 21.352 6.128H23.774C24.463 6.128 25.035 6.631 25.139 7.294C25.141 7.307 25.141 7.318 25.143 7.328C25.145 7.343 25.145 7.356 25.147 7.369C25.154 7.408 25.155 7.446 25.155 7.485C25.157 7.504 25.157 7.513 25.157 7.513V8.331H29.366C29.906 8.331 30.346 8.77 30.346 9.311V9.49C30.346 10.032 29.907 10.469 29.366 10.469H25.157V14.24H29.366C29.906 14.24 30.346 14.679 30.346 15.219V15.4C30.346 15.94 29.907 16.379 29.366 16.379V16.381ZM20.148 0.377C20.029 0.339 19.906 0.304 19.781 0.272C19.906 0.305 20.029 0.339 20.148 0.377Z" fill="#8ABA42"/>
<path d="M51.013 20.025C51.963 20.824 53.121 21.224 54.489 21.224C55.532 21.224 56.435 21.039 57.2 20.668C57.965 20.298 58.717 19.753 59.459 19.034L61.927 21.224C61.046 22.267 59.998 23.101 58.781 23.727C57.564 24.353 56.11 24.666 54.419 24.666C53.098 24.666 51.864 24.434 50.717 23.971C49.57 23.508 48.573 22.859 47.728 22.025C46.882 21.191 46.216 20.189 45.729 19.018C45.242 17.848 44.999 16.545 44.999 15.108C44.999 13.787 45.219 12.548 45.659 11.389C46.099 10.231 46.719 9.217 47.519 8.347C48.318 7.478 49.262 6.789 50.352 6.279C51.441 5.769 52.646 5.514 53.967 5.514C55.427 5.514 56.707 5.781 57.808 6.313C58.908 6.846 59.824 7.564 60.554 8.468C61.284 9.372 61.834 10.426 62.205 11.631C62.575 12.836 62.761 14.099 62.761 15.42C62.761 15.606 62.755 15.791 62.744 15.976C62.732 16.162 62.715 16.358 62.692 16.567H49.206C49.461 18.074 50.063 19.226 51.013 20.025ZM58.59 13.786C58.521 13.114 58.37 12.483 58.138 11.892C57.906 11.301 57.593 10.792 57.2 10.363C56.806 9.935 56.336 9.593 55.792 9.338C55.247 9.083 54.628 8.956 53.932 8.956C52.634 8.956 51.562 9.402 50.717 10.294C49.871 11.186 49.355 12.351 49.17 13.787H58.59V13.786Z" fill="#282A37"/>
<path d="M78.82 5.895H83.234L75.726 24.387H71.937L64.394 5.895H68.913L73.849 19.381L78.82 5.895Z" fill="#282A37"/>
<path d="M103.585 18.791C103.086 19.95 102.403 20.963 101.534 21.832C100.665 22.701 99.628 23.391 98.423 23.9C97.218 24.409 95.908 24.665 94.495 24.665C93.082 24.665 91.812 24.416 90.619 23.918C89.425 23.42 88.394 22.736 87.526 21.867C86.657 20.998 85.979 19.99 85.493 18.843C85.006 17.696 84.763 16.462 84.763 15.141C84.763 13.82 85.012 12.575 85.51 11.405C86.008 10.235 86.692 9.215 87.561 8.346C88.43 7.477 89.461 6.788 90.654 6.278C91.847 5.768 93.151 5.513 94.564 5.513C95.977 5.513 97.281 5.762 98.474 6.26C99.667 6.759 100.699 7.442 101.567 8.311C102.436 9.18 103.114 10.194 103.6 11.353C104.087 12.512 104.33 13.751 104.33 15.072C104.33 16.393 104.081 17.633 103.583 18.791H103.585ZM99.677 12.847C99.401 12.129 99.015 11.497 98.52 10.953C98.025 10.409 97.438 9.98 96.758 9.667C96.079 9.354 95.325 9.198 94.496 9.198C93.667 9.198 92.912 9.354 92.233 9.667C91.554 9.98 90.972 10.403 90.488 10.936C90.005 11.469 89.636 12.089 89.383 12.796C89.13 13.503 89.003 14.262 89.003 15.073C89.003 15.884 89.141 16.655 89.417 17.385C89.693 18.115 90.079 18.747 90.574 19.279C91.069 19.812 91.656 20.235 92.336 20.548C93.015 20.861 93.758 21.017 94.564 21.017C95.416 21.017 96.181 20.861 96.861 20.548C97.54 20.235 98.122 19.813 98.605 19.279C99.088 18.746 99.457 18.126 99.71 17.419C99.963 16.712 100.09 15.954 100.09 15.142C100.09 14.33 99.951 13.567 99.676 12.848L99.677 12.847Z" fill="#282A37"/>
<path d="M126.873 19.138C126.398 20.32 125.761 21.322 124.961 22.145C124.162 22.968 123.246 23.588 122.215 24.005C121.184 24.422 120.123 24.631 119.035 24.631C117.528 24.631 116.277 24.306 115.281 23.658C114.284 23.01 113.461 22.256 112.813 21.399L112.848 29.81H108.607V5.895H112.848V8.954C113.518 7.981 114.351 7.164 115.345 6.504C116.339 5.843 117.576 5.513 119.055 5.513C120.141 5.513 121.193 5.722 122.21 6.139C123.227 6.556 124.135 7.176 124.932 7.999C125.729 8.822 126.371 9.824 126.857 11.006C127.342 12.188 127.585 13.544 127.585 15.073C127.585 16.602 127.347 17.958 126.873 19.14V19.138ZM122.928 12.621C122.65 11.891 122.273 11.271 121.798 10.761C121.323 10.252 120.767 9.857 120.129 9.579C119.491 9.301 118.814 9.162 118.096 9.162C117.378 9.162 116.694 9.301 116.045 9.579C115.396 9.857 114.829 10.257 114.342 10.778C113.855 11.299 113.467 11.92 113.178 12.638C112.888 13.357 112.743 14.167 112.743 15.071C112.743 15.975 112.887 16.786 113.178 17.504C113.467 18.223 113.856 18.842 114.342 19.364C114.829 19.885 115.396 20.285 116.045 20.563C116.693 20.841 117.377 20.98 118.096 20.98C118.815 20.98 119.492 20.841 120.129 20.563C120.766 20.285 121.322 19.891 121.798 19.381C122.272 18.872 122.649 18.251 122.928 17.521C123.206 16.791 123.345 15.974 123.345 15.071C123.345 14.168 123.206 13.351 122.928 12.621Z" fill="#282A37"/>
<path d="M144.479 21.363C144.132 22.082 143.65 22.679 143.037 23.153C142.422 23.628 141.699 23.987 140.865 24.231C140.031 24.474 139.138 24.596 138.189 24.596C136.868 24.596 135.53 24.364 134.174 23.901C132.819 23.438 131.561 22.754 130.403 21.85L132.28 19C133.276 19.742 134.29 20.303 135.321 20.686C136.352 21.068 137.342 21.259 138.293 21.259C139.244 21.259 139.897 21.08 140.396 20.72C140.894 20.361 141.143 19.88 141.143 19.278V19.208C141.143 18.86 141.033 18.56 140.813 18.304C140.593 18.049 140.292 17.823 139.909 17.626C139.527 17.429 139.086 17.256 138.588 17.105C138.089 16.954 137.574 16.798 137.041 16.636C136.369 16.427 135.691 16.196 135.008 15.941C134.324 15.686 133.71 15.356 133.166 14.951C132.621 14.546 132.176 14.047 131.828 13.456C131.48 12.865 131.307 12.13 131.307 11.249V11.18C131.307 10.323 131.475 9.546 131.811 8.851C132.146 8.156 132.61 7.565 133.201 7.078C133.792 6.591 134.487 6.221 135.286 5.966C136.086 5.711 136.937 5.584 137.841 5.584C138.999 5.584 140.17 5.77 141.352 6.14C142.534 6.511 143.611 7.021 144.585 7.669L142.917 10.658C142.036 10.125 141.144 9.702 140.241 9.389C139.337 9.076 138.503 8.92 137.738 8.92C136.927 8.92 136.295 9.094 135.844 9.441C135.392 9.789 135.166 10.229 135.166 10.762V10.832C135.166 11.157 135.282 11.44 135.514 11.684C135.745 11.927 136.053 12.148 136.435 12.344C136.817 12.541 137.257 12.726 137.756 12.9C138.254 13.074 138.769 13.242 139.303 13.404C139.975 13.613 140.647 13.856 141.319 14.134C141.991 14.412 142.599 14.754 143.144 15.159C143.688 15.565 144.135 16.057 144.482 16.636C144.83 17.215 145.003 17.922 145.003 18.756V18.825C145.003 19.798 144.829 20.644 144.482 21.362L144.479 21.363Z" fill="#282A37"/>
<path d="M111.834 38.474C111.553 38.639 111.213 38.721 110.815 38.721C110.502 38.721 110.211 38.66 109.941 38.538C109.671 38.416 109.437 38.252 109.239 38.048C109.041 37.843 108.886 37.605 108.775 37.332C108.663 37.059 108.608 36.769 108.608 36.463V36.446C108.608 36.139 108.664 35.849 108.775 35.577C108.886 35.304 109.041 35.063 109.239 34.852C109.437 34.642 109.671 34.475 109.941 34.353C110.211 34.231 110.502 34.17 110.815 34.17C111.02 34.17 111.206 34.192 111.373 34.235C111.541 34.279 111.696 34.338 111.838 34.413C111.98 34.488 112.109 34.575 112.226 34.672C112.342 34.769 112.452 34.871 112.554 34.979L112.256 35.286C112.068 35.093 111.861 34.925 111.634 34.783C111.407 34.641 111.131 34.57 110.807 34.57C110.557 34.57 110.325 34.618 110.112 34.714C109.899 34.81 109.714 34.942 109.558 35.109C109.402 35.276 109.278 35.473 109.187 35.699C109.096 35.925 109.051 36.168 109.051 36.429V36.446C109.051 36.706 109.098 36.951 109.192 37.18C109.286 37.409 109.414 37.609 109.576 37.778C109.738 37.948 109.927 38.08 110.143 38.177C110.359 38.273 110.592 38.321 110.842 38.321C111.149 38.321 111.423 38.251 111.665 38.112C111.906 37.973 112.118 37.801 112.3 37.596L112.59 37.852C112.368 38.102 112.117 38.31 111.836 38.474H111.834Z" fill="#282A37"/>
<path d="M118.786 38.619V36.036C118.786 35.587 118.667 35.228 118.428 34.958C118.189 34.688 117.848 34.553 117.405 34.553C117.189 34.553 116.99 34.592 116.808 34.668C116.626 34.745 116.467 34.851 116.331 34.988C116.195 35.124 116.088 35.288 116.011 35.478C115.934 35.669 115.896 35.877 115.896 36.105V38.62H115.478V32.397H115.896V35.082C116.044 34.826 116.243 34.61 116.493 34.434C116.743 34.258 117.067 34.17 117.465 34.17C117.738 34.17 117.982 34.214 118.198 34.302C118.414 34.39 118.597 34.514 118.748 34.673C118.899 34.832 119.012 35.021 119.089 35.24C119.166 35.459 119.204 35.699 119.204 35.96V38.62H118.786V38.619Z" fill="#282A37"/>
<path d="M125.393 38.619V37.894C125.319 37.996 125.229 38.097 125.124 38.197C125.019 38.297 124.898 38.384 124.762 38.461C124.626 38.538 124.471 38.6 124.297 38.648C124.124 38.696 123.935 38.72 123.73 38.72C123.525 38.72 123.324 38.691 123.125 38.635C122.926 38.579 122.747 38.493 122.588 38.379C122.429 38.265 122.299 38.123 122.2 37.953C122.1 37.783 122.051 37.584 122.051 37.356V37.339C122.051 37.112 122.098 36.91 122.191 36.734C122.285 36.558 122.414 36.41 122.579 36.291C122.744 36.172 122.943 36.081 123.176 36.018C123.409 35.955 123.667 35.924 123.952 35.924C124.259 35.924 124.523 35.941 124.745 35.975C124.966 36.009 125.182 36.055 125.393 36.111V35.925C125.393 35.484 125.266 35.154 125.014 34.933C124.761 34.713 124.41 34.602 123.961 34.602C123.694 34.602 123.449 34.635 123.228 34.7C123.006 34.765 122.796 34.849 122.597 34.951L122.444 34.584C122.683 34.468 122.924 34.375 123.169 34.305C123.413 34.235 123.686 34.2 123.987 34.2C124.55 34.2 124.993 34.342 125.317 34.626C125.641 34.91 125.803 35.336 125.803 35.905V38.616H125.394L125.393 38.619ZM125.401 36.496C125.219 36.451 125.006 36.407 124.762 36.364C124.517 36.322 124.239 36.3 123.926 36.3C123.466 36.3 123.112 36.392 122.865 36.576C122.618 36.76 122.494 37.005 122.494 37.31V37.327C122.494 37.486 122.528 37.626 122.596 37.747C122.664 37.869 122.756 37.972 122.873 38.057C122.99 38.142 123.124 38.207 123.278 38.252C123.431 38.297 123.591 38.32 123.755 38.32C123.977 38.32 124.187 38.287 124.386 38.222C124.585 38.157 124.76 38.066 124.91 37.95C125.061 37.834 125.18 37.694 125.268 37.53C125.356 37.366 125.4 37.185 125.4 36.987V36.495L125.401 36.496Z" fill="#282A37"/>
<path d="M131.309 34.663C131.059 34.663 130.82 34.71 130.593 34.804C130.366 34.898 130.165 35.037 129.992 35.222C129.819 35.407 129.681 35.634 129.579 35.904C129.477 36.174 129.426 36.485 129.426 36.837V38.619H129.008V34.271H129.426V35.507C129.511 35.314 129.619 35.135 129.75 34.97C129.881 34.805 130.028 34.665 130.193 34.548C130.358 34.432 130.538 34.343 130.734 34.284C130.93 34.224 131.136 34.197 131.352 34.203V34.663H131.309Z" fill="#282A37"/>
<path d="M137.792 38.824C137.687 39.08 137.538 39.294 137.348 39.468C137.157 39.641 136.931 39.773 136.669 39.864C136.407 39.955 136.122 40 135.815 40C135.08 40 134.414 39.775 133.816 39.327L134.063 38.986C134.593 39.395 135.18 39.6 135.823 39.6C136.074 39.6 136.303 39.565 136.511 39.494C136.719 39.423 136.898 39.317 137.049 39.176C137.2 39.035 137.318 38.86 137.404 38.651C137.49 38.442 137.532 38.198 137.532 37.92V37.289C137.435 37.425 137.328 37.553 137.208 37.673C137.089 37.792 136.955 37.899 136.807 37.993C136.659 38.087 136.494 38.161 136.313 38.215C136.131 38.269 135.932 38.296 135.716 38.296C135.454 38.296 135.199 38.248 134.949 38.151C134.699 38.054 134.476 37.917 134.28 37.738C134.084 37.559 133.926 37.344 133.807 37.094C133.688 36.844 133.628 36.563 133.628 36.25V36.233C133.628 35.921 133.688 35.636 133.807 35.381C133.926 35.125 134.084 34.908 134.28 34.729C134.476 34.55 134.699 34.412 134.949 34.316C135.199 34.219 135.455 34.171 135.716 34.171C135.932 34.171 136.132 34.198 136.317 34.252C136.502 34.306 136.668 34.377 136.816 34.465C136.964 34.553 137.097 34.657 137.217 34.776C137.336 34.895 137.441 35.018 137.532 35.143V34.273H137.95V37.947C137.95 38.277 137.897 38.569 137.792 38.825V38.824ZM137.558 36.224C137.558 35.974 137.507 35.747 137.404 35.542C137.301 35.337 137.166 35.163 136.998 35.018C136.83 34.873 136.638 34.762 136.421 34.686C136.204 34.609 135.982 34.571 135.754 34.571C135.526 34.571 135.31 34.609 135.104 34.686C134.899 34.763 134.719 34.872 134.566 35.014C134.412 35.156 134.291 35.328 134.203 35.53C134.115 35.732 134.071 35.961 134.071 36.216V36.233C134.071 36.478 134.117 36.702 134.208 36.906C134.299 37.111 134.422 37.285 134.576 37.43C134.73 37.575 134.909 37.689 135.114 37.771C135.319 37.854 135.533 37.895 135.755 37.895C135.977 37.895 136.205 37.855 136.422 37.776C136.638 37.696 136.831 37.584 136.999 37.439C137.167 37.294 137.303 37.121 137.405 36.919C137.508 36.717 137.559 36.491 137.559 36.241V36.224H137.558Z" fill="#282A37"/>
<path d="M141.565 37.336C141.668 37.545 141.796 37.723 141.95 37.871C142.104 38.018 142.279 38.13 142.476 38.206C142.673 38.282 142.879 38.32 143.096 38.32C143.438 38.32 143.727 38.255 143.964 38.124C144.201 37.993 144.41 37.831 144.592 37.638L144.882 37.894C144.66 38.133 144.408 38.33 144.126 38.486C143.844 38.642 143.495 38.72 143.079 38.72C142.794 38.72 142.522 38.666 142.263 38.558C142.004 38.45 141.776 38.297 141.579 38.098C141.382 37.899 141.227 37.66 141.113 37.382C140.999 37.104 140.942 36.794 140.942 36.453V36.436C140.942 36.123 140.995 35.829 141.1 35.554C141.205 35.278 141.35 35.038 141.535 34.834C141.72 34.629 141.937 34.467 142.187 34.348C142.437 34.229 142.71 34.169 143.005 34.169C143.3 34.169 143.587 34.227 143.832 34.344C144.076 34.461 144.285 34.621 144.458 34.826C144.631 35.031 144.765 35.271 144.859 35.546C144.953 35.822 145 36.121 145 36.445V36.539C145 36.556 144.997 36.582 144.992 36.616H141.386C141.403 36.887 141.463 37.128 141.566 37.337L141.565 37.336ZM144.557 36.24C144.54 36.018 144.495 35.807 144.424 35.605C144.353 35.403 144.253 35.224 144.125 35.068C143.997 34.912 143.839 34.787 143.65 34.693C143.462 34.599 143.243 34.552 142.992 34.552C142.775 34.552 142.573 34.595 142.385 34.68C142.197 34.765 142.033 34.883 141.893 35.034C141.753 35.185 141.638 35.364 141.547 35.571C141.456 35.779 141.402 36.001 141.384 36.24H144.556H144.557Z" fill="#282A37"/>
</g>
<defs>
<clipPath id="clip0_14_2">
<rect width="145" height="40" fill="white"/>
</clipPath>
</defs>
</svg>
