<svg width="440" height="385" viewBox="0 0 440 385" fill="none" xmlns="http://www.w3.org/2000/svg">
<g clip-path="url(#clip0_2_158)">
<path d="M395.2 67.6299V395.67H392.795L368.532 395.63H368.381L321.54 395.54H320.498L305.541 395.52L302.72 395.51H302.568L261.909 395.44L255.727 395.41L254.676 395.4L234.38 395.3V67.6299H395.2Z" fill="#455A64"/>
<path d="M302.644 90.0701L290.83 89.9501L278.977 89.9001L255.244 89.8101H254.392V90.7201L254.544 130.72V131.48H255.235L279.138 131.16L302.682 130.73L278.797 130.3L255.936 130V130.73L255.235 129.99H255.936L256.087 91.6601H255.235L256.087 90.7701V91.6601L278.968 91.5801L290.82 91.5201L302.086 91.4101V90.7701L302.682 91.4001H302.086L302.19 100.65L302.332 110.58L302.682 130.71L303.023 110.88L303.165 100.88L303.278 90.8001V90.1701L302.644 90.0701Z" fill="#37474F"/>
<path d="M368.949 100.79L369.062 90.7101V90.0801H368.456L356.604 89.9601L344.79 89.9001L321.066 89.8101H320.176V90.7201L320.328 130.72V131.48H321.019L344.913 131.16L368.456 130.73L344.572 130.3L321.729 130V130.73L321.019 129.99H321.729L321.871 91.6601H321.019L321.871 90.7701V91.6601L344.742 91.5801L356.604 91.5201L367.869 91.4101V90.7701L368.456 91.4001H367.869L367.974 100.65L368.116 110.58L368.456 130.71L368.807 110.88L368.949 100.88" fill="#37474F"/>
<path d="M302.644 152.22L255.197 152.13H254.345V153.02L254.449 210.41C254.449 219.97 254.487 229.533 254.563 239.1L254.724 267.8V268.3H255.178L278.996 268.07L302.663 267.81L278.845 267.55L255.67 267.33V267.82L255.197 267.32H255.67L255.831 239.11C255.901 229.55 255.939 219.987 255.945 210.42L256.049 153.93H255.197L256.049 153.03V153.93L301.887 153.83V153.03L302.644 153.83H301.887C301.887 163.08 301.887 172.33 301.981 181.59L302.171 210.21L302.644 267.81L303.117 210.63L303.307 181.85C303.382 172.26 303.364 162.64 303.401 153.03V152.23L302.644 152.22Z" fill="#37474F"/>
<path d="M368.456 152.22L321.019 152.13H320.176V153.02L320.29 210.41C320.29 219.97 320.328 229.533 320.404 239.1L320.564 267.8V268.3H321.028L344.846 268.07L368.513 267.81L344.695 267.55L321.483 267.33V267.82L321.019 267.32H321.483L321.644 239.11C321.719 229.55 321.757 219.987 321.757 210.42L321.871 153.93H321.019L321.871 153.03V153.93L367.708 153.83V153.03L368.456 153.83H367.708C367.708 163.08 367.708 172.33 367.794 181.59L367.992 210.21L368.456 267.81L368.939 210.63L369.119 181.85C369.204 172.26 369.185 162.64 369.214 153.03V152.23L368.456 152.22Z" fill="#37474F"/>
<path d="M302.644 289.33L255.197 289.23H254.345V290.13L254.449 347.52C254.449 357.08 254.487 366.643 254.563 376.21L254.657 395.01V395.37H255.708V394.99L255.803 376.2C255.872 366.64 255.91 357.077 255.917 347.51L256.021 291.01H255.169L256.021 290.12V291.01L301.858 290.91V290.12L302.616 290.91H301.858C301.858 300.17 301.858 309.42 301.953 318.68L302.19 347.33L302.578 394.92V395.5H302.729V394.92L303.117 347.74L303.307 318.98C303.382 309.37 303.364 299.76 303.401 290.15V289.33H302.644Z" fill="#37474F"/>
<path d="M368.456 289.33L321.019 289.23H320.176V290.13L320.29 347.52C320.29 357.08 320.328 366.643 320.404 376.21L320.498 394.87V395.51H321.54V394.87L321.634 376.21C321.71 366.65 321.748 357.087 321.748 347.52L321.861 291.02H321.009L321.861 290.13V291.02L367.699 290.92V290.13L368.447 290.92H367.699C367.699 300.18 367.699 309.43 367.784 318.69L367.983 347.31L368.362 394.79V395.6H368.513V394.79L368.911 347.72L369.091 318.96C369.176 309.35 369.157 299.74 369.185 290.13V289.33H368.456Z" fill="#37474F"/>
<path d="M409.589 52V395.64L395.2 395.67V67.63H234.38V395.3L220 395.23V52H409.589Z" fill="#37474F"/>
<path d="M389.472 267.8H374.884V309.98H389.472V267.8Z" fill="#8ABA41"/>
<path opacity="0.1" d="M388.052 275.15C388.019 276.37 387.646 277.552 386.98 278.549C386.314 279.547 385.384 280.315 384.308 280.757C383.231 281.2 382.055 281.297 380.926 281.038C379.797 280.778 378.765 280.173 377.96 279.298C377.155 278.423 376.612 277.316 376.398 276.117C376.185 274.917 376.311 273.678 376.76 272.554C377.21 271.429 377.963 270.47 378.926 269.795C379.888 269.12 381.018 268.76 382.173 268.76C382.957 268.772 383.73 268.946 384.449 269.274C385.169 269.601 385.82 270.075 386.366 270.668C386.912 271.262 387.342 271.963 387.631 272.732C387.92 273.501 388.064 274.322 388.052 275.15Z" fill="black"/>
<path d="M347.158 17H285V40.94H347.158V17Z" fill="#8ABA41"/>
<path d="M295.442 35.2302V22.7002C295.44 22.5467 295.468 22.3944 295.524 22.2524C295.579 22.1104 295.661 21.9815 295.764 21.8734C295.867 21.7653 295.99 21.6801 296.125 21.6229C296.26 21.5656 296.404 21.5375 296.549 21.5402H303.119C303.411 21.5428 303.689 21.6655 303.896 21.8822C304.103 22.0989 304.222 22.3925 304.227 22.7002C304.224 23.0116 304.108 23.3098 303.901 23.5319C303.694 23.754 303.414 23.8824 303.119 23.8902H297.676V27.8002H302.352C302.649 27.8002 302.933 27.9245 303.142 28.1458C303.352 28.3671 303.469 28.6673 303.469 28.9802C303.469 29.2932 303.352 29.5933 303.142 29.8146C302.933 30.0359 302.649 30.1602 302.352 30.1602H297.676V34.0602H303.119C303.415 34.0602 303.7 34.1845 303.909 34.4058C304.119 34.6271 304.236 34.9273 304.236 35.2402C304.236 35.5532 304.119 35.8533 303.909 36.0746C303.7 36.2959 303.415 36.4202 303.119 36.4202H296.606C296.454 36.4285 296.303 36.4037 296.16 36.3473C296.018 36.2909 295.888 36.2043 295.779 36.0926C295.67 35.981 295.583 35.8469 295.525 35.6985C295.467 35.5501 295.439 35.3907 295.442 35.2302Z" fill="white"/>
<path d="M317.442 23.5499L313.656 29.0299L317.442 34.5499C317.56 34.724 317.63 34.9289 317.645 35.1422C317.661 35.3556 317.62 35.5692 317.528 35.76C317.437 35.9507 317.297 36.1112 317.125 36.2241C316.953 36.3369 316.755 36.3977 316.552 36.3999C316.377 36.3972 316.204 36.3516 316.048 36.2665C315.892 36.1815 315.757 36.0594 315.653 35.9099L312.273 31.0099L308.875 35.9099C308.774 36.0574 308.641 36.1782 308.489 36.2632C308.336 36.3481 308.167 36.3949 307.995 36.3999C307.761 36.4038 307.534 36.3226 307.351 36.1699C307.114 35.991 306.953 35.7206 306.903 35.4174C306.854 35.1142 306.919 34.8025 307.086 34.5499L310.872 29.0299L307.086 23.5499C307.002 23.4261 306.943 23.286 306.911 23.1378C306.879 22.9896 306.876 22.8362 306.9 22.6865C306.925 22.5368 306.978 22.3938 307.055 22.2656C307.132 22.1375 307.233 22.0268 307.351 21.9399C307.464 21.8434 307.595 21.773 307.735 21.7331C307.875 21.6932 308.022 21.6848 308.165 21.7083C308.309 21.7319 308.446 21.7869 308.568 21.8698C308.691 21.9528 308.795 22.0618 308.875 22.1899L312.273 27.0799L315.653 22.1899C315.736 22.0624 315.842 21.9542 315.966 21.8719C316.09 21.7897 316.229 21.7352 316.373 21.7117C316.518 21.6883 316.666 21.6965 316.807 21.7357C316.949 21.775 317.081 21.8445 317.196 21.9399C317.313 22.0283 317.412 22.1401 317.487 22.269C317.563 22.3979 317.613 22.5412 317.636 22.6909C317.659 22.8405 317.654 22.9934 317.62 23.1408C317.587 23.2883 317.527 23.4273 317.442 23.5499Z" fill="white"/>
<path d="M321.021 22.7002C321.019 22.5467 321.047 22.3944 321.103 22.2524C321.158 22.1104 321.24 21.9815 321.343 21.8734C321.446 21.7653 321.569 21.6801 321.704 21.6229C321.839 21.5656 321.983 21.5375 322.128 21.5402C322.423 21.5375 322.707 21.6579 322.918 21.8752C323.129 22.0925 323.25 22.389 323.255 22.7002V35.2302C323.254 35.3852 323.223 35.5384 323.166 35.681C323.109 35.8237 323.026 35.953 322.921 36.0617C322.816 36.1703 322.692 36.2561 322.556 36.3142C322.42 36.3723 322.275 36.4015 322.128 36.4002C321.982 36.4029 321.837 36.3745 321.701 36.3167C321.566 36.2588 321.443 36.1728 321.339 36.0636C321.236 35.9544 321.154 35.8243 321.1 35.6811C321.045 35.538 321.018 35.3846 321.021 35.2302V22.7002Z" fill="white"/>
<path d="M335.666 23.8902H332.475V35.2302C332.478 35.3846 332.451 35.538 332.396 35.6811C332.341 35.8243 332.26 35.9544 332.157 36.0636C332.053 36.1728 331.93 36.2588 331.795 36.3167C331.659 36.3745 331.514 36.4029 331.368 36.4002C331.074 36.4002 330.792 36.2769 330.585 36.0575C330.377 35.8381 330.26 35.5405 330.26 35.2302V23.8902H327.089C326.942 23.8889 326.797 23.8571 326.662 23.7966C326.527 23.7361 326.404 23.648 326.302 23.5375C326.199 23.427 326.118 23.2962 326.063 23.1525C326.008 23.0089 325.98 22.8552 325.981 22.7002C325.98 22.5467 326.008 22.3944 326.063 22.2524C326.118 22.1104 326.2 21.9815 326.303 21.8734C326.407 21.7653 326.529 21.6801 326.664 21.6229C326.799 21.5656 326.943 21.5375 327.089 21.5402H335.666C335.811 21.5389 335.954 21.5679 336.089 21.6256C336.223 21.6833 336.345 21.7686 336.448 21.8764C336.551 21.9843 336.633 22.1126 336.689 22.254C336.744 22.3954 336.773 22.547 336.773 22.7002C336.771 23.0116 336.654 23.3098 336.447 23.5319C336.241 23.754 335.96 23.8824 335.666 23.8902Z" fill="white"/>
<path d="M110.319 297.751C110.319 297.751 130.009 374.181 134.752 385.461H211.129C197.942 349.001 183.988 301.301 183.591 297.981V297.751H110.319Z" fill="#37474F"/>
<path d="M120.987 307.921C121.47 314.121 142.837 380.121 144.654 385.461H145.762C145.762 385.461 122.559 312.461 121.309 307.921C121.271 307.731 120.987 307.731 120.987 307.921Z" fill="#263238"/>
<path d="M172.988 297.751L163.124 366.361L162.773 368.691L161.902 374.891L161.836 375.331L161.599 376.991L160.388 385.441H134.752C130.019 374.161 110.319 297.731 110.319 297.731L172.988 297.751Z" fill="#263238"/>
<path d="M72.0259 385.461H144.285C144.285 385.131 144.332 384.881 144.342 384.661C144.351 384.441 144.389 384.151 144.389 384.151C144.787 383.911 145.194 383.681 145.601 383.451C149.851 381.011 153.581 379.101 156.648 377.661L158.163 376.941C159.555 376.311 160.804 375.771 161.836 375.341C164.496 374.231 165.973 373.731 165.973 373.731C166.068 373.501 166.143 373.271 166.219 373.041C176.689 344.891 183.004 301.981 183.591 297.981C183.585 297.881 183.585 297.781 183.591 297.681H80.4039C74.26 317.981 65.0111 342.741 72.0259 385.461Z" fill="#37474F"/>
<path d="M169.665 371.721C160.914 375.082 152.457 379.241 144.389 384.151C144.067 384.341 144.275 384.861 144.616 384.701C153.136 380.841 161.817 377.141 170.119 372.791C170.238 372.717 170.326 372.6 170.368 372.462C170.41 372.324 170.402 372.174 170.345 372.041C170.289 371.909 170.189 371.803 170.063 371.744C169.938 371.685 169.796 371.677 169.665 371.721Z" fill="#263238"/>
<path d="M172.373 309.991C172.373 309.681 171.833 309.611 171.833 309.991C171.831 320.027 171.354 330.056 170.403 340.041C170.006 344.681 166.484 370.281 158.873 368.421C157.605 368.101 156.98 366.781 156.753 364.751C156.506 362.311 157.377 359.321 157.756 356.901C158.608 351.541 159.28 346.161 159.716 340.751C160.6 330.67 160.498 320.52 159.413 310.461C159.413 310.392 159.387 310.326 159.341 310.278C159.294 310.229 159.232 310.201 159.167 310.201C159.101 310.201 159.039 310.229 158.992 310.278C158.946 310.326 158.92 310.392 158.92 310.461C158.92 324.461 158.58 338.461 156.601 352.281C155.654 358.941 152.474 368.971 159.072 369.991C165.67 371.011 170.129 354.221 170.953 349.621C173.234 336.811 173.329 322.971 172.373 309.991Z" fill="#263238"/>
<path d="M159.072 369.072C158.394 370.797 157.825 372.567 157.368 374.372C156.876 375.769 156.636 377.251 156.658 378.742C156.667 378.802 156.694 378.857 156.734 378.901C156.774 378.944 156.826 378.974 156.882 378.986C156.939 378.998 156.997 378.992 157.05 378.968C157.103 378.944 157.148 378.903 157.179 378.852C157.967 377.544 158.564 376.118 158.949 374.622C159.526 372.982 160.142 371.352 160.672 369.692C160.75 369.467 160.74 369.22 160.645 369.003C160.55 368.787 160.377 368.619 160.165 368.537C159.953 368.454 159.719 368.464 159.514 368.565C159.309 368.665 159.15 368.847 159.072 369.072Z" fill="#263238"/>
<path d="M124.661 318.371C124.673 317.255 124.565 316.142 124.339 315.051C124.33 315.015 124.31 314.982 124.282 314.958C124.253 314.935 124.218 314.922 124.182 314.922C124.147 314.922 124.112 314.935 124.083 314.958C124.055 314.982 124.035 315.015 124.026 315.051C123.81 315.995 123.692 316.961 123.676 317.931C123.562 319.031 123.43 320.131 123.316 321.231C123.092 323.486 122.718 325.722 122.199 327.921C121.236 332.072 119.231 335.872 116.396 338.921C113.575 341.857 110.236 344.181 106.57 345.761C102.49 347.581 98.1917 348.261 93.9696 349.571C93.9344 349.585 93.9047 349.61 93.8855 349.644C93.8663 349.678 93.8589 349.718 93.8645 349.757C93.8701 349.796 93.8884 349.832 93.9162 349.858C93.944 349.884 93.9796 349.9 94.0169 349.901C98.6972 349.894 103.332 348.934 107.668 347.071C111.503 345.552 114.993 343.198 117.911 340.161C120.846 337.029 122.912 333.107 123.884 328.821C124.369 326.619 124.641 324.371 124.698 322.111C124.761 320.865 124.748 319.616 124.661 318.371Z" fill="#263238"/>
<path d="M82.1741 385.461C79.9892 378.862 78.6241 371.991 78.1129 365.021C77.5446 358.036 77.5034 351.014 77.9899 344.021C78.3401 340.541 78.5863 337.021 79.1543 333.601C79.4288 331.881 79.6276 330.151 79.9589 328.441L80.9908 323.311C81.1707 322.461 81.3221 321.601 81.5209 320.761L82.1647 318.231L83.4805 313.231C83.9444 311.551 84.5313 309.921 85.0425 308.231C85.5537 306.541 86.1217 304.931 86.6803 303.301C85.9703 306.711 85.0804 310.051 84.3799 313.441L83.3575 318.621L82.8368 321.151C82.6759 322.001 82.5623 322.861 82.4203 323.711L81.5777 328.821C81.2843 330.521 81.1328 332.251 80.9056 333.961C80.4039 337.381 80.1672 340.821 79.8643 344.261C79.3705 351.149 79.2693 358.061 79.5613 364.961C79.656 366.681 79.7317 368.411 79.8927 370.131L80.1104 372.711L80.4134 375.281C80.7941 378.711 81.3822 382.111 82.1741 385.461Z" fill="#263238"/>
<path d="M147.608 230.281C126.781 259.101 88.9901 269.721 60.4008 248.001C53.8215 243.001 47.3652 236.371 44.3075 228.401C41.4675 220.911 42.1585 212.311 45.1121 205.041C48.7757 196.041 56.0556 190.131 63.2219 184.201C71.2307 177.591 90.0599 162.731 102.035 135.901C106.049 126.901 109.012 117.321 114.181 109.041C126.914 88.6313 140.688 85.9613 156.421 90.3413C164.26 92.5313 170.716 99.0713 174.152 107.911C184.414 134.131 167.374 202.941 147.608 230.281Z" fill="#263238"/>
<path d="M61.4327 183.621C65.967 180.066 70.3154 176.254 74.4588 172.201C91.8817 155.133 105.306 134.016 113.67 110.521C113.67 110.521 113.67 110.521 113.67 110.521C103.313 137.192 86.7647 160.678 65.5507 178.811C56.4154 186.541 45.3299 193.031 42.0828 205.811C40.7485 211.23 40.9329 216.941 42.6134 222.251C44.294 227.561 47.3985 232.24 51.5495 235.721C51.8335 235.971 52.25 235.561 51.966 235.301C41.7042 225.971 38.8831 210.161 46.5606 197.971C50.2904 192.011 56.0556 187.881 61.4327 183.621Z" fill="#263238"/>
<path d="M174.531 166.241C177.082 150.387 177.604 134.242 176.084 118.241C176.084 118.141 175.932 118.141 175.941 118.241C177.503 145.011 174.522 171.851 165.935 197.151C157.851 220.941 143.774 242.041 120.77 251.351C109.613 255.833 97.5747 257.307 85.7431 255.641C85.4591 255.641 85.3834 256.131 85.6768 256.181C95.988 257.884 106.529 257.12 116.524 253.946C126.518 250.771 135.711 245.268 143.424 237.841C162.016 219.841 170.479 191.781 174.531 166.241Z" fill="#263238"/>
<path d="M96.8475 144.261C105.14 131.731 109.041 116.711 118.157 104.741C118.242 104.631 118.11 104.471 118.015 104.581C109.713 113.271 106.077 125.491 100.379 135.991C94.5131 146.806 86.6939 156.299 77.3651 163.931C68.8451 170.931 58.64 175.501 50.8584 183.421C47.109 187.247 44.2015 191.897 42.3415 197.042C40.4815 202.186 39.7145 207.699 40.0948 213.191C40.8237 224.571 46.4375 235.311 54.6356 242.691C54.8628 242.891 55.1941 242.571 54.9764 242.341C44.8944 231.971 38.8831 217.601 41.9597 202.661C45.292 186.491 57.93 178.971 70.1893 170.801C80.6644 163.925 89.7289 154.9 96.8475 144.261Z" fill="#263238"/>
<path d="M176.557 165.211C178.146 150.535 178.035 135.709 176.225 121.061C176.225 120.921 175.998 120.911 176.017 121.061C179.454 151.621 175.62 183.581 163.521 211.701C157.226 226.321 148.592 238.131 135.121 246.011C123.032 253.091 109.041 257.781 95.1056 256.431C94.8311 256.431 94.8311 256.861 95.1056 256.891C105.699 258.151 116.084 255.691 125.891 251.501C135.907 247.221 145.553 241.201 152.644 232.441C159.952 223.441 164.714 212.041 168.52 200.941C172.478 189.394 175.175 177.406 176.557 165.211Z" fill="#263238"/>
<path d="M151.877 208.061C157.358 227.241 180.277 289.701 198.368 295.661C210.211 299.571 278.579 305.521 286.2 300.121C291.387 296.441 287.658 247.691 281.021 248.551C274.385 249.411 217.093 248.641 212.417 246.711C207.74 244.781 175.421 197.541 162.887 185.381C141.275 164.421 148.924 197.731 151.877 208.061Z" fill="#F7A9A0"/>
<path d="M267.901 247.081V306.831C267.901 306.831 205.515 304.581 192.167 294.361C178.819 284.141 156.582 230.511 148.109 201.081C140.176 173.541 152.388 170.701 167.743 188.081C183.098 205.461 213.486 243.951 215.465 244.441C217.443 244.931 267.901 247.081 267.901 247.081Z" fill="#8ABA41"/>
<path d="M256.115 252.681C256.534 256.556 256.765 260.451 256.806 264.351C256.967 268.351 257.014 272.421 257.08 276.451C257.147 280.481 256.891 296.611 256.825 300.641C256.825 300.678 256.811 300.714 256.786 300.74C256.761 300.766 256.727 300.781 256.692 300.781C256.657 300.781 256.623 300.766 256.598 300.74C256.574 300.714 256.56 300.678 256.56 300.641C256.389 296.641 255.698 280.641 255.613 276.641C255.528 272.641 255.499 268.731 255.556 264.771C255.485 260.734 255.608 256.695 255.925 252.671C255.973 252.621 256.105 252.621 256.115 252.681Z" fill="#263238"/>
<path opacity="0.1" d="M250.794 305.831C231.303 304.391 201.019 301.121 192.196 294.361C178.867 284.141 156.601 230.511 148.128 201.081C142.997 183.281 146.292 175.801 153.401 177.431C167.895 197.511 225.604 272.951 250.794 305.831Z" fill="black"/>
<path d="M183.562 297.751L180.571 263.231C180.571 263.231 189.299 249.151 188.03 232.501C187.084 220.381 154.329 177.991 152.218 175.911C143.755 167.571 127.198 173.151 122.606 179.211C100.426 208.561 91.3663 242.971 80.4039 297.681L183.562 297.751Z" fill="#8ABA41"/>
<path d="M149.747 258.731C154.426 258.434 159.118 258.508 163.786 258.951C166.106 259.211 168.397 259.571 170.687 259.951C171.833 260.161 172.978 260.321 174.124 260.481C175.325 260.691 176.546 260.741 177.759 260.631C177.782 260.631 177.803 260.641 177.819 260.658C177.835 260.674 177.844 260.697 177.844 260.721C177.844 260.745 177.835 260.768 177.819 260.785C177.803 260.802 177.782 260.811 177.759 260.811C176.633 261.043 175.495 261.2 174.351 261.281C173.239 261.314 172.125 261.268 171.019 261.141C168.662 260.911 166.285 260.561 163.976 260.301C159.242 259.781 154.509 259.301 149.728 259.101C149.697 259.081 149.672 259.053 149.655 259.02C149.639 258.986 149.631 258.948 149.633 258.91C149.635 258.872 149.646 258.835 149.667 258.804C149.687 258.772 149.715 258.747 149.747 258.731Z" fill="#263238"/>
<path d="M138.974 264.841C142.716 263.824 146.508 263.029 150.334 262.461C152.227 262.181 154.121 262.021 156.099 261.921C157.046 261.871 157.945 261.841 158.873 261.821C159.801 261.801 160.908 261.921 161.921 261.881C162.025 261.881 162.054 262.041 161.921 262.051C160.975 262.121 160.028 262.351 159.081 262.481L156.241 262.851C154.348 263.101 152.455 263.371 150.505 263.601C146.671 264.071 142.855 264.601 139.031 265.171C138.785 265.201 138.756 264.891 138.974 264.841Z" fill="#263238"/>
<path d="M59.6245 370.201L127.056 381.771C145.279 384.901 144.73 369.001 142.837 352.081C140.943 335.161 138.245 309.561 121.963 306.771L104.459 303.771L86.9359 300.771C70.6437 297.971 60.4292 321.361 53.5469 336.771C46.6647 352.181 41.3917 367.071 59.6245 370.201Z" fill="#8ABA41"/>
<g opacity="0.2">
<path d="M59.6245 370.201L127.056 381.771C145.279 384.901 144.73 369.001 142.837 352.081C140.943 335.161 138.245 309.561 121.963 306.771L104.459 303.771L86.9359 300.771C70.6437 297.971 60.4292 321.361 53.5469 336.771C46.6647 352.181 41.3917 367.071 59.6245 370.201Z" fill="black"/>
</g>
<path opacity="0.1" d="M116.188 314.501C116.003 315.674 116.152 316.878 116.616 317.961C117.08 319.043 117.838 319.956 118.794 320.584C119.749 321.211 120.86 321.524 121.984 321.483C123.109 321.443 124.197 321.05 125.11 320.356C126.023 319.661 126.72 318.696 127.113 317.582C127.506 316.468 127.577 315.256 127.317 314.1C127.057 312.943 126.477 311.895 125.652 311.087C124.827 310.279 123.793 309.748 122.682 309.561C121.202 309.313 119.688 309.693 118.472 310.618C117.255 311.543 116.434 312.939 116.188 314.501Z" fill="black"/>
<path opacity="0.1" d="M78.9176 308.111C78.7347 309.284 78.8854 310.487 79.3506 311.569C79.8159 312.651 80.5748 313.563 81.5311 314.188C82.4874 314.814 83.598 315.126 84.7222 315.084C85.8463 315.042 86.9334 314.648 87.8456 313.953C88.7578 313.258 89.454 312.292 89.846 311.178C90.238 310.064 90.308 308.853 90.0473 307.697C89.7866 306.541 89.2069 305.493 88.3817 304.685C87.5564 303.878 86.5228 303.348 85.4118 303.162C83.9299 302.913 82.4151 303.294 81.1984 304.222C79.9816 305.149 79.1617 306.548 78.9176 308.111Z" fill="black"/>
<path d="M117.987 314.811C117.865 315.602 117.969 316.412 118.284 317.141C118.599 317.869 119.111 318.483 119.756 318.904C120.401 319.325 121.149 319.534 121.907 319.506C122.665 319.477 123.397 319.212 124.012 318.744C124.627 318.276 125.097 317.626 125.363 316.876C125.628 316.126 125.677 315.309 125.503 314.53C125.329 313.75 124.941 313.043 124.386 312.497C123.832 311.95 123.137 311.59 122.389 311.461C121.385 311.293 120.359 311.551 119.535 312.179C118.71 312.806 118.154 313.752 117.987 314.811Z" fill="#263238"/>
<path d="M80.7163 308.421C80.5951 309.212 80.6986 310.023 81.0135 310.751C81.3285 311.479 81.8407 312.093 82.4857 312.514C83.1306 312.935 83.8792 313.144 84.6368 313.116C85.3944 313.088 86.127 312.823 86.7421 312.355C87.3572 311.886 87.8272 311.236 88.0925 310.486C88.3579 309.736 88.4067 308.92 88.2329 308.14C88.0591 307.361 87.6705 306.653 87.1161 306.107C86.5617 305.561 85.8665 305.2 85.1183 305.071C84.621 304.986 84.1126 305.004 83.6221 305.126C83.1316 305.248 82.6688 305.471 82.2599 305.783C81.8511 306.094 81.5043 306.487 81.2395 306.94C80.9746 307.392 80.7968 307.896 80.7163 308.421Z" fill="#263238"/>
<path d="M85.9608 309.761L84.0675 309.621C84.0675 309.001 84.1527 308.221 84.2095 307.311C87.1252 257.791 96.6676 218.311 112.553 189.901C116.434 182.971 124.007 175.951 129.167 172.901L130.113 174.641C125.162 177.641 117.911 184.321 114.19 190.961C98.4568 219.071 89.0091 258.271 86.1028 307.471C86.0271 308.361 85.9608 309.131 85.9608 309.761Z" fill="#263238"/>
<path opacity="0.1" d="M81.1991 323.921L120.476 331.031L117.826 347.351L96.7149 352.891L78.4916 340.611L81.1991 323.921Z" fill="black"/>
<path d="M122.663 315.811L120.893 315.121C121.148 314.391 146.51 242.121 150.703 219.591C154.831 197.511 156.071 184.771 151.404 176.421L153.032 175.421C158.012 184.331 156.819 197.421 152.568 220.001C148.318 242.581 122.881 315.081 122.663 315.811Z" fill="#263238"/>
<path d="M230.801 205.241H188.419V285.231H230.801V205.241Z" fill="#37474F"/>
<path d="M188.428 205.241H178.516V285.231H188.428V205.241Z" fill="#263238"/>
<path d="M188.428 226.551H178.516V229.461H188.428V226.551Z" fill="#37474F"/>
<path d="M178.507 241.011H188.419V234.301H178.507V241.011Z" fill="#37474F"/>
<path d="M178.507 264.331H188.419V261.421H178.507V264.331Z" fill="#37474F"/>
<path d="M230.801 226.551H188.419V229.461H230.801V226.551Z" fill="#455A64"/>
<path d="M188.428 241.011H230.81V234.301H188.428V241.011Z" fill="#455A64"/>
<path d="M188.428 264.331H230.81V261.421H188.428V264.331Z" fill="#455A64"/>
<path d="M254.297 279.931L211.044 287.751L200.422 208.711L243.675 200.891L254.297 279.931Z" fill="#8ABA41"/>
<path d="M200.933 289.571L211.044 287.751L200.422 208.711L190.312 210.541L200.933 289.571Z" fill="#8ABA41"/>
<path opacity="0.1" d="M200.933 289.571L211.044 287.751L200.422 208.711L190.312 210.541L200.933 289.571Z" fill="black"/>
<path d="M202.59 224.811L192.47 226.641L191.58 220.011L201.7 218.181L202.59 224.811Z" fill="#263238"/>
<path d="M203.452 231.211L193.332 233.041L192.944 230.171L203.063 228.341L203.452 231.211Z" fill="#263238"/>
<path d="M198.633 272.451L208.743 270.621L209.633 277.261L199.523 279.091L198.633 272.451Z" fill="#263238"/>
<path d="M197.772 266.061L207.891 264.231L208.27 267.101L198.16 268.931L197.772 266.061Z" fill="#263238"/>
<path d="M244.035 270.921L218.466 275.541L216.714 262.511L242.284 257.891L244.035 270.921Z" fill="white"/>
<path d="M275.124 205.241H227.62V285.231H275.124V205.241Z" fill="#EBEBEB"/>
<path d="M227.62 205.241H216.516V285.231H227.62V205.241Z" fill="#DBDBDB"/>
<path d="M223.985 218.151H220.151V272.321H223.985V218.151Z" fill="#263238"/>
<path d="M263.253 218.151H239.491V221.411H263.253V218.151Z" fill="white"/>
<path d="M289.03 182.901C277.083 199.991 264.635 219.811 261.577 241.241C261.577 241.561 262.041 241.671 262.107 241.351C263.484 235.507 265.25 229.773 267.39 224.191C275.237 221.911 282.943 220.031 287.071 211.801C291.274 203.341 290.744 192.311 289.911 183.091C289.901 182.621 289.267 182.621 289.03 182.901Z" fill="#8ABA41"/>
<path d="M267.522 224.031C272.89 211.311 279.829 198.541 288.528 188.091C288.595 188.021 288.68 188.091 288.633 188.191C282.896 195.641 278.541 203.751 274.291 212.001C278.248 207.761 282.574 204.001 286.323 199.471C286.399 199.381 286.512 199.471 286.446 199.591C282.725 204.311 278.664 209.431 273.817 212.921C272.511 215.451 271.205 217.991 269.879 220.531C270.201 220.341 270.542 220.171 270.873 219.991C270.881 219.997 270.887 220.004 270.892 220.013C270.896 220.022 270.899 220.031 270.899 220.041C270.899 220.051 270.896 220.061 270.892 220.07C270.887 220.078 270.881 220.086 270.873 220.091C270.504 220.281 270.144 220.491 269.756 220.661C269.131 221.861 268.507 223.071 267.863 224.271C267.768 224.531 267.408 224.301 267.522 224.031Z" fill="#263238"/>
<path d="M271.507 219.621C274.718 217.726 277.782 215.566 280.671 213.161C280.756 213.091 280.87 213.211 280.785 213.281C277.984 215.836 274.916 218.044 271.64 219.861C271.61 219.875 271.577 219.876 271.546 219.866C271.516 219.855 271.49 219.833 271.473 219.803C271.457 219.774 271.452 219.739 271.458 219.705C271.464 219.672 271.482 219.642 271.507 219.621Z" fill="#263238"/>
<path d="M260.214 238.051C260.214 238.311 260.659 238.311 260.659 238.051C260.715 231.001 260.659 223.911 260.763 216.821C262.476 213.171 266.149 211.151 268.696 208.231C270.521 206.097 272.11 203.748 273.429 201.231C276.502 195.208 278.38 188.587 278.948 181.771C279.658 174.221 276.941 149.321 273.931 150.181C272.369 150.631 267.304 162.971 265.979 167.051C263.812 173.776 262.228 180.694 261.246 187.721C258.822 204.291 259.021 221.341 260.214 238.051Z" fill="#8ABA41"/>
<path d="M260.147 207.622C260.507 198.692 262.41 189.682 264.199 181.022C266.093 171.692 268.365 162.912 272.909 154.592C272.917 154.576 272.927 154.563 272.94 154.552C272.953 154.542 272.968 154.534 272.984 154.529C273 154.525 273.016 154.523 273.033 154.525C273.049 154.528 273.065 154.533 273.079 154.542C273.093 154.55 273.106 154.561 273.116 154.575C273.126 154.589 273.134 154.604 273.138 154.621C273.142 154.638 273.144 154.655 273.142 154.673C273.14 154.69 273.134 154.706 273.126 154.722C270.099 161.194 267.753 167.998 266.13 175.012C266.443 174.512 266.812 174.012 267.077 173.562C267.2 173.372 267.494 173.562 267.371 173.742C266.965 174.496 266.489 175.206 265.951 175.862H265.894C264.332 182.522 263.205 189.342 262.249 196.152L262.457 195.882C262.505 195.832 262.59 195.882 262.561 195.962C262.438 196.192 262.306 196.411 262.173 196.641C261.691 200.091 261.227 203.541 260.791 206.951C266.613 201.701 271.583 195.502 274.385 187.872C274.385 187.872 274.452 187.872 274.442 187.872C271.697 195.782 267.361 202.872 260.697 207.622L260.327 210.382C260.327 210.572 260.015 210.522 260.015 210.382C260.015 209.562 260.015 208.752 260.091 207.932C260.067 207.911 260.049 207.884 260.039 207.854C260.029 207.823 260.026 207.79 260.032 207.759C260.038 207.727 260.052 207.698 260.072 207.673C260.092 207.649 260.118 207.631 260.147 207.622Z" fill="#263238"/>
<path d="M262.912 194.681C267.361 187.681 271.517 180.861 274.773 173.111C274.773 173.021 274.944 173.111 274.915 173.171C272.17 180.871 268.289 188.681 263.139 194.861C263.116 194.893 263.083 194.914 263.045 194.92C263.008 194.925 262.97 194.915 262.94 194.891C262.91 194.867 262.89 194.832 262.885 194.793C262.879 194.753 262.889 194.713 262.912 194.681Z" fill="#263238"/>
<path d="M268.819 171.381C270.712 167.931 272.606 164.581 274.348 161.071C274.348 160.971 274.518 161.071 274.48 161.151C273.059 164.816 271.259 168.304 269.112 171.551C268.989 171.731 268.715 171.621 268.819 171.381Z" fill="#263238"/>
<path d="M268.102 172.871V172.931C268.102 172.931 268.069 172.871 268.102 172.871Z" fill="#263238"/>
<path d="M255.698 217.621C255.605 222.297 255.082 226.952 254.136 231.521C254.202 232.021 254.278 232.521 254.344 233.041C255.699 228.016 256.49 222.841 256.702 217.621C256.742 217.548 256.763 217.466 256.763 217.381C256.763 217.297 256.742 217.214 256.702 217.141C256.887 210.106 256.392 203.07 255.225 196.141C253.152 183.141 248.598 170.731 240.078 161.011C240.008 160.946 239.925 160.898 239.834 160.873C239.744 160.847 239.65 160.844 239.558 160.863C239.466 160.882 239.38 160.924 239.306 160.984C239.232 161.045 239.172 161.122 239.131 161.211C235.676 170.491 236.878 181.561 239.823 190.821C241.422 195.833 243.709 200.57 246.61 204.881C249.564 209.191 253.313 212.881 255.698 217.621Z" fill="#8ABA41"/>
<path d="M241.11 165.301C249.223 179.211 254.865 195.701 255.556 212.131C255.556 212.421 255.102 212.501 255.064 212.201C254.875 210.731 254.657 209.261 254.439 207.811C251.088 204.411 247.642 200.811 245.238 196.591C245.23 196.575 245.227 196.556 245.231 196.538C245.234 196.521 245.243 196.505 245.256 196.493C245.27 196.481 245.286 196.475 245.303 196.474C245.321 196.474 245.337 196.48 245.351 196.491C248.133 200.106 251.121 203.539 254.297 206.771C253.71 203.144 253.013 199.568 252.205 196.041C251.987 195.781 251.779 195.511 251.571 195.251C251.362 194.991 251.656 194.821 251.807 194.991L252.006 195.221C250.859 190.394 249.443 185.642 247.765 180.991C245.692 178.391 243.382 176.141 241.877 172.991C241.871 172.975 241.87 172.958 241.875 172.942C241.88 172.925 241.89 172.912 241.904 172.903C241.918 172.894 241.935 172.892 241.951 172.895C241.966 172.898 241.981 172.908 241.99 172.921C243.202 174.711 244.367 176.521 245.777 178.181C246.326 178.841 246.923 179.461 247.491 180.111C245.626 175.069 243.411 170.179 240.864 165.481C240.675 165.281 240.987 165.091 241.11 165.301Z" fill="#263238"/>
<path d="M242.748 182.461C245.37 186.191 248.362 189.741 250.794 193.601C250.87 193.711 250.709 193.821 250.624 193.741C247.491 190.631 244.84 186.391 242.568 182.571C242.502 182.451 242.672 182.351 242.748 182.461Z" fill="#263238"/>
<path d="M251.164 194.461L251.278 194.581C251.354 194.661 251.278 194.791 251.155 194.711L251.041 194.591C250.965 194.511 251.088 194.381 251.164 194.461Z" fill="#263238"/>
<path d="M228.396 192.041C229.342 199.806 232.289 207.146 236.916 213.261C238.832 215.656 241.198 217.604 243.865 218.981C246.866 220.551 250.018 222.361 253.133 223.651C254.608 227.629 255.706 231.753 256.408 235.961C256.512 235.601 256.607 235.231 256.711 234.871C254.714 216.751 243.609 201.271 229.419 191.331C229.308 191.267 229.184 191.235 229.058 191.24C228.932 191.245 228.81 191.287 228.704 191.36C228.599 191.433 228.515 191.535 228.461 191.655C228.406 191.775 228.384 191.909 228.396 192.041Z" fill="#8ABA41"/>
<path d="M233.3 197.391C233.205 197.301 233.3 197.111 233.442 197.201C241.246 203.326 247.466 211.424 251.533 220.751C251.637 220.991 251.315 221.211 251.183 220.961C250.551 219.741 249.879 218.551 249.166 217.391C245.929 216.741 242.852 214.331 240.447 212.051C240.381 211.991 240.447 211.891 240.542 211.951C241.785 213.132 243.166 214.14 244.651 214.951C245.966 215.661 247.386 216.101 248.769 216.671C247.566 214.671 246.307 212.731 244.982 210.851C241.483 209.449 238.203 207.501 235.25 205.071C235.155 205.001 235.25 204.841 235.335 204.911C238.27 206.779 241.294 208.484 244.395 210.021C242.415 207.263 240.278 204.635 237.995 202.151C236.897 201.531 235.78 200.911 234.711 200.261C234.692 200.248 234.679 200.229 234.672 200.206C234.666 200.183 234.668 200.159 234.677 200.138C234.686 200.116 234.702 200.099 234.722 200.089C234.742 200.078 234.765 200.076 234.786 200.081C235.672 200.41 236.518 200.85 237.304 201.391C236.036 200.061 234.711 198.711 233.3 197.391Z" fill="#263238"/>
<path d="M233.641 203.621C233.833 203.743 234.017 203.88 234.19 204.031C234.19 204.081 234.19 204.151 234.114 204.121C233.915 204.027 233.725 203.914 233.546 203.781C233.414 203.751 233.499 203.621 233.641 203.621Z" fill="#263238"/>
<path d="M278.901 275.201H240.002L243.136 237.781L243.827 229.521H275.076L275.767 237.781L278.901 275.201Z" fill="#455A64"/>
<path d="M275.767 237.781H243.136L243.827 229.521H275.076L275.767 237.781Z" fill="#263238"/>
<path d="M276.932 223.751H241.971V231.921H276.932V223.751Z" fill="#455A64"/>
<path d="M296.717 232.77L169.807 232.934L169.906 318.084L296.816 317.92L296.717 232.77Z" fill="#8ABA41"/>
<path opacity="0.2" d="M296.717 232.77L169.807 232.934L169.906 318.084L296.816 317.92L296.717 232.77Z" fill="black"/>
<path opacity="0.2" d="M169.874 318.13L213.09 318.082L213.005 232.922L169.79 232.97L169.874 318.13Z" fill="black"/>
<path d="M172.874 312.211C176.068 306.151 179.223 300.075 182.341 293.981L191.722 275.621L200.952 257.221C204.02 251.075 207.052 244.908 210.05 238.721C206.856 244.781 203.701 250.858 200.583 256.951L191.23 275.281L182 293.691C178.914 299.851 175.872 306.025 172.874 312.211Z" fill="#8ABA41"/>
<path d="M172.789 238.792C175.806 244.972 178.851 251.131 181.924 257.271L191.202 275.651L200.602 293.961C203.758 300.055 206.935 306.128 210.135 312.181C207.112 306.001 204.067 299.841 201 293.701L191.722 275.311L182.322 257.001C179.179 250.915 176.001 244.845 172.789 238.792Z" fill="#8ABA41"/>
<path opacity="0.7" d="M197.914 254.701H196.229L194.865 252.881L193.606 254.701H192.839H192.025L190.861 254.711L190.416 254.061L189.848 254.711H188.437H188.087H187.623L187.425 254.251L186.999 254.711L186.412 253.891L185.739 254.711H184.793L184.764 232.911L197.885 232.901L197.914 254.701Z" fill="white"/>
<path opacity="0.1" d="M296.812 317.951L296.802 312.091L213.098 301.311L213.117 318.031L296.812 317.951Z" fill="black"/>
<path d="M307.575 252.071H223.862L213.022 232.881H296.736L307.575 252.071Z" fill="#8ABA41"/>
<path d="M204.076 252.071H160.871L169.817 232.901H213.022L204.076 252.071Z" fill="#8ABA41"/>
<path opacity="0.2" d="M204.076 252.071H160.871L169.817 232.901H213.022L204.076 252.071Z" fill="black"/>
<path d="M117.504 194.131C112.041 226.391 111.824 292.551 120.514 301.791C135.557 317.791 167.582 333.061 186.071 338.361C192.347 340.161 205.175 289.201 198.217 288.941C189.905 288.621 153.42 269.731 152.777 267.941C151.943 265.541 142.571 226.321 136.125 199.481C128.428 167.401 119.681 181.261 117.504 194.131Z" fill="#F7A9A0"/>
<path d="M181.375 336.881C197.8 343.211 217.888 352.151 237.295 348.371C239.474 348.019 241.476 346.898 242.975 345.191C251.703 343.661 253.634 338.851 253.634 338.851C261.35 334.801 262.694 329.591 262.694 329.591C262.694 329.591 272.918 327.681 272.852 320.961C272.795 313.421 258.443 317.581 249.185 314.771C228.065 308.331 199.75 292.941 193.834 290.451L181.375 336.881Z" fill="#F7A9A0"/>
<path d="M222.574 324.451C228.822 326.221 234.881 328.121 241.366 328.981C248.437 329.931 255.386 329.581 262.476 329.421C262.522 329.421 262.565 329.44 262.597 329.474C262.629 329.508 262.647 329.553 262.647 329.601C262.647 329.649 262.629 329.695 262.597 329.728C262.565 329.762 262.522 329.781 262.476 329.781C249.696 332.221 234.417 330.061 222.461 324.781C222.205 324.621 222.281 324.361 222.574 324.451Z" fill="#263238"/>
<path d="M217.046 337.351C223.218 338.711 234.086 341.031 253.578 338.631C253.644 338.631 253.672 338.731 253.578 338.751C241.516 341.972 228.843 341.581 216.979 337.621C216.601 337.541 216.601 337.261 217.046 337.351Z" fill="#263238"/>
<path d="M214.196 344.341C224.771 346.231 231.672 346.011 242.89 345.151C242.956 345.151 242.975 345.261 242.89 345.271C230.233 347.671 225.386 347.021 214.064 344.721C213.695 344.621 213.761 344.271 214.196 344.341Z" fill="#263238"/>
<path d="M224.174 305.311C221.741 303.311 222.707 301.961 228.179 301.911C233.65 301.861 255.414 306.621 256.304 298.451C257.194 290.281 226.522 284.121 217.415 284.941C208.308 285.761 193.843 290.451 193.843 290.451C199.561 292.921 212.994 300.311 224.174 305.311Z" fill="#F7A9A0"/>
<path d="M197.44 286.622L178.914 341.622C178.914 341.622 121.565 310.692 116.434 298.882C109.552 283.082 111.047 226.812 115.667 198.432C120.287 170.052 131.514 175.382 136.967 198.432C142.42 221.482 152.417 264.942 153.922 266.382C155.427 267.822 197.44 286.622 197.44 286.622Z" fill="#8ABA41"/>
<path d="M186.696 286.531C185.882 290.301 184.528 294.011 183.363 297.681C182.199 301.351 180.817 305.281 179.501 309.071C178.185 312.861 172.467 327.821 171.038 331.551C171.023 331.582 170.998 331.606 170.967 331.619C170.937 331.631 170.903 331.631 170.872 331.619C170.841 331.606 170.816 331.582 170.801 331.552C170.786 331.521 170.783 331.485 170.792 331.451C172.003 327.621 176.794 312.451 178.1 308.741C179.406 305.031 180.684 301.301 182.076 297.631C183.468 293.961 184.774 290.031 186.535 286.491C186.573 286.411 186.715 286.421 186.696 286.531Z" fill="#263238"/>
<path d="M196.721 288.751L197.365 286.601V286.701C189.592 283.461 181.877 280.061 174.171 276.701L162.669 271.441L156.961 268.731C156.014 268.271 155.067 267.831 154.121 267.321L153.761 267.121L153.572 267.021C153.457 266.947 153.352 266.856 153.259 266.751C153.047 266.487 152.869 266.195 152.729 265.881C152.483 265.341 152.284 264.821 152.095 264.291C150.665 260.051 149.662 255.781 148.602 251.501C147.541 247.221 146.604 242.921 145.762 238.611C143.935 229.991 142.24 221.351 140.735 212.671L146.765 238.361L149.88 251.161C150.959 255.411 152.019 259.701 153.439 263.771C153.608 264.263 153.804 264.744 154.026 265.211C154.112 265.399 154.217 265.577 154.339 265.741L154.499 265.831L154.831 266.001C155.73 266.461 156.724 266.941 157.671 267.401L163.351 270.131L174.787 275.521C182.36 279.181 190.009 282.801 197.563 286.521H197.63V286.591L196.721 288.751Z" fill="#263238"/>
<path d="M142.59 214.491C142.814 215.639 142.897 216.812 142.837 217.981C142.799 219.15 142.608 220.308 142.269 221.421C142.269 220.831 142.269 220.261 142.269 219.681L142.325 217.961C142.42 216.811 142.467 215.621 142.59 214.491Z" fill="#263238"/>
<path d="M113.651 214.292C113.424 221.132 113.215 227.971 113.102 234.811C112.988 241.651 112.875 248.482 112.912 255.322C112.95 262.162 113.045 268.991 113.386 275.801C113.556 279.211 113.783 282.611 114.153 285.991C114.454 289.349 115.05 292.67 115.932 295.911C116.163 296.679 116.461 297.422 116.822 298.132C116.993 298.471 117.239 298.801 117.447 299.132C117.666 299.478 117.903 299.812 118.157 300.132C119.174 301.418 120.275 302.627 121.451 303.751C123.841 306.022 126.347 308.152 128.958 310.132C134.175 314.132 139.646 317.781 145.146 321.371C150.647 324.961 156.251 328.371 161.893 331.741C167.535 335.111 173.253 338.382 178.933 341.632C173.083 338.701 167.308 335.581 161.571 332.401C155.834 329.221 150.211 325.861 144.588 322.401C138.965 318.941 133.512 315.252 128.211 311.262C125.547 309.266 122.987 307.119 120.543 304.831C119.306 303.672 118.151 302.418 117.087 301.081C116.808 300.749 116.549 300.398 116.311 300.031C116.055 299.668 115.821 299.287 115.61 298.891C115.217 298.094 114.9 297.256 114.664 296.391C113.762 293.052 113.163 289.63 112.875 286.171C112.524 282.751 112.316 279.321 112.165 275.901C111.871 269.041 111.805 262.191 111.909 255.341C112.06 241.628 112.641 227.945 113.651 214.292Z" fill="#263238"/>
<path d="M112.401 216.031C112.524 217.301 112.628 218.551 112.77 219.801C112.837 220.421 112.922 221.041 112.998 221.661C113.073 222.281 113.187 222.901 113.263 223.541C112.754 222.376 112.434 221.128 112.316 219.851C112.16 218.581 112.188 217.293 112.401 216.031Z" fill="#263238"/>
<path d="M299.491 244.431C303.192 251.661 312.034 260.431 313.028 266.431C313.324 267.906 313.162 269.442 312.565 270.812C311.968 272.181 310.968 273.31 309.715 274.031C309.715 274.031 315.584 276.731 315.622 282.341C315.622 285.231 311.296 287.811 311.296 287.811C311.296 287.811 315.906 290.191 315.66 295.191C315.452 299.191 311.125 301.191 311.125 301.191C311.125 301.191 314.543 305.651 313.104 309.641C310.198 317.731 277.831 319.511 272.208 307.191C269.586 301.451 277.519 301.471 277.519 301.471C277.519 301.471 266.159 298.541 265.6 291.471C265.042 284.401 275.379 285.111 275.379 285.111C275.379 285.111 264.36 282.111 264.521 274.811C264.682 267.151 274.878 269.691 274.878 269.691C274.878 269.691 267.427 264.941 268.772 259.341C270.987 250.091 285.177 260.781 292.202 258.611L295.515 246.001L299.491 244.431Z" fill="#F7A9A0"/>
<path d="M306.534 254.841C303.599 247.671 311.722 238.171 309.847 230.841C307.31 220.991 297.181 231.341 295.534 245.941L296.14 257.511L306.534 254.841Z" fill="#F7A9A0"/>
<path d="M310.482 301.621C310.502 301.619 310.522 301.624 310.538 301.636C310.555 301.647 310.567 301.665 310.573 301.685C310.578 301.705 310.577 301.727 310.569 301.747C310.561 301.766 310.547 301.782 310.529 301.791C300.012 305.121 287.506 305.381 277.083 301.531C276.743 301.411 276.78 300.771 277.188 300.831C288.642 302.621 298.961 303.191 310.482 301.621Z" fill="#263238"/>
<path d="M311.457 287.871C311.58 287.871 311.608 288.071 311.457 288.111C300.608 291.471 286.503 291.351 274.982 285.431C274.594 285.231 274.423 284.621 274.897 284.821C282.867 288.151 301.081 289.381 311.457 287.871Z" fill="#263238"/>
<path d="M274.168 268.971C285.414 274.201 297.124 275.091 309.27 274.181C309.431 274.181 309.431 274.401 309.27 274.451C303.448 276.611 295.647 276.341 289.589 275.581C283.957 274.994 278.569 272.86 273.959 269.391C273.808 269.251 273.921 268.861 274.168 268.971Z" fill="#263238"/>
<path d="M130.454 175.701C131.041 177.871 140.375 190.591 149.861 189.631C152.947 189.321 153.297 172.471 153.297 172.471L153.524 171.131L156.592 152.441L135.386 139.551L132.329 137.851C132.329 137.851 131.808 143.031 131.221 149.481C131.221 149.771 131.164 150.071 131.136 150.391C131.107 150.711 131.051 151.101 131.032 151.391C130.927 152.391 130.833 153.391 130.748 154.321C130.691 155.061 130.625 155.791 130.587 156.581C130.549 157.371 130.492 158.131 130.435 158.921C130.038 166.751 130.227 174.771 130.454 175.701Z" fill="#F7A9A0"/>
<path d="M156.601 152.441L153.534 171.131L153.316 172.471C153.316 172.471 153.316 174.671 153.07 177.471C141.227 178.891 130.634 166.321 130.217 165.821C130.217 163.641 130.322 161.291 130.445 158.951C130.501 158.161 130.539 157.391 130.596 156.601C130.653 155.811 130.7 155.091 130.767 154.351C130.842 153.351 130.937 152.351 131.041 151.421C131.041 151.081 131.107 150.741 131.155 150.421C131.202 150.101 131.202 149.801 131.23 149.501C131.817 143.051 132.338 137.881 132.338 137.881L135.396 139.581L156.601 152.441Z" fill="#263238"/>
<path d="M110.943 125.621C106.617 158.621 124.822 165.071 131.562 166.051C137.677 166.941 158.599 169.151 166.134 136.811C173.669 104.471 160.52 91.9214 146.642 89.1114C132.764 86.3014 115.308 92.6213 110.943 125.621Z" fill="#F7A9A0"/>
<path d="M120.666 120.071C121.413 120.071 122.095 119.861 122.824 119.751C123.597 119.746 124.348 119.476 124.963 118.981C125.127 118.784 125.225 118.535 125.242 118.273C125.259 118.011 125.195 117.751 125.058 117.531C124.72 117.149 124.293 116.867 123.82 116.712C123.347 116.558 122.843 116.537 122.36 116.651C121.35 116.738 120.406 117.215 119.709 117.991C119.558 118.178 119.461 118.407 119.431 118.651C119.401 118.894 119.44 119.142 119.541 119.363C119.643 119.584 119.803 119.769 120.003 119.895C120.203 120.021 120.433 120.082 120.666 120.071Z" fill="#263238"/>
<path d="M142.808 127.741C142.07 127.591 141.417 127.331 140.707 127.111C139.941 126.998 139.233 126.622 138.69 126.041C138.551 125.825 138.485 125.565 138.502 125.304C138.519 125.043 138.619 124.796 138.785 124.601C139.163 124.264 139.62 124.041 140.108 123.954C140.596 123.868 141.097 123.922 141.559 124.111C142.551 124.34 143.428 124.949 144.02 125.821C144.145 126.028 144.21 126.268 144.208 126.512C144.206 126.757 144.136 126.996 144.008 127.2C143.879 127.403 143.697 127.563 143.484 127.659C143.271 127.755 143.036 127.784 142.808 127.741Z" fill="#263238"/>
<path d="M137.819 131.271C137.819 131.181 137.98 131.391 137.971 131.481C137.706 133.741 137.762 136.361 139.627 137.301C139.684 137.301 139.675 137.441 139.627 137.421C137.27 136.841 137.232 133.361 137.819 131.271Z" fill="#263238"/>
<path d="M139.921 129.101C143.386 129.151 143.026 136.461 139.817 136.411C136.607 136.361 137.081 129.051 139.921 129.101Z" fill="#263238"/>
<path d="M141.275 129.561C141.852 130.001 142.411 130.771 143.168 130.881C143.925 130.991 144.683 130.291 145.269 129.581C145.326 129.511 145.383 129.581 145.383 129.671C145.326 131.081 144.749 132.481 143.319 132.611C141.89 132.741 141.142 131.441 140.877 130.011C140.801 129.751 141.038 129.381 141.275 129.561Z" fill="#263238"/>
<path d="M124.897 129.381C124.897 129.291 124.727 129.491 124.727 129.581C124.812 131.851 124.537 134.461 122.606 135.221C122.54 135.221 122.549 135.361 122.606 135.351C124.992 134.981 125.314 131.511 124.897 129.381Z" fill="#263238"/>
<path d="M122.966 127.021C119.511 126.761 119.274 134.081 122.483 134.321C125.692 134.561 125.863 127.241 122.966 127.021Z" fill="#263238"/>
<path d="M121.593 127.361C120.978 127.751 120.363 128.461 119.624 128.511C118.886 128.561 118.166 127.781 117.636 127.031C117.579 126.951 117.523 127.031 117.513 127.111C117.456 128.511 117.92 129.961 119.331 130.221C120.741 130.481 121.593 129.221 121.972 127.851C122.038 127.621 121.839 127.201 121.593 127.361Z" fill="#263238"/>
<path d="M135.187 148.931C134.667 149.461 134.146 150.181 133.37 150.251C132.573 150.225 131.789 150.024 131.069 149.661C131.003 149.661 130.927 149.711 130.975 149.771C131.278 150.22 131.691 150.575 132.169 150.796C132.647 151.018 133.173 151.099 133.692 151.031C134.13 150.913 134.525 150.659 134.827 150.303C135.129 149.947 135.323 149.504 135.386 149.031C135.386 148.901 135.187 148.851 135.187 148.931Z" fill="#263238"/>
<path d="M134.922 144.921C132.196 145.883 129.281 146.086 126.459 145.511C126.223 145.441 126.071 144.911 126.062 144.661C126.062 144.581 126.781 140.031 126.781 140.031C126.166 140.251 122.994 141.241 123.193 140.371C124.519 133.181 126.033 125.191 128.76 118.371C128.773 118.32 128.806 118.276 128.851 118.249C128.895 118.223 128.947 118.217 128.996 118.231C129.045 118.246 129.087 118.28 129.112 118.327C129.136 118.374 129.143 118.43 129.129 118.481C128.106 125.481 125.939 132.161 124.812 139.141C125.928 138.769 127.088 138.567 128.258 138.541C128.466 138.641 127.406 143.611 127.387 144.371C129.881 144.665 132.399 144.631 134.885 144.271C135.935 144.061 136.191 144.371 134.922 144.921Z" fill="#263238"/>
<path d="M164.884 140.971C162.896 139.862 161.215 138.227 160.005 136.225C158.795 134.223 158.099 131.923 157.983 129.551C152.569 126.801 147.94 122.585 144.569 117.331C144.758 118.021 146.121 123.021 146.888 125.551C127.056 120.891 121.395 104.551 121.395 104.551C114.702 111.141 113.272 115.461 112.259 117.601C112.259 117.601 112.534 104.661 119.113 96.2213C127.16 85.8913 153.278 83.9613 164.875 98.2213C177.361 113.621 164.884 140.971 164.884 140.971Z" fill="#263238"/>
<path d="M131.827 121.511C134.978 123.479 138.389 124.942 141.947 125.851C136.388 124.014 131.424 120.575 127.614 115.921C125.997 113.936 124.62 111.746 123.515 109.401C122.217 106.881 121.403 104.115 121.12 101.261C121.111 101.225 121.091 101.192 121.063 101.168C121.035 101.145 121 101.132 120.964 101.132C120.928 101.132 120.893 101.145 120.865 101.168C120.836 101.192 120.816 101.225 120.808 101.261C120.803 104.109 121.247 106.938 122.124 109.631C123.105 112.262 124.532 114.682 126.336 116.771C127.956 118.608 129.81 120.196 131.846 121.491" fill="#263238"/>
<path d="M160.842 138.621C160.842 138.621 168.217 128.621 172.552 131.441C176.888 134.261 170.981 149.041 165.651 150.811C164.982 151.09 164.266 151.223 163.547 151.201C162.828 151.179 162.12 151.004 161.467 150.685C160.814 150.366 160.229 149.911 159.748 149.346C159.266 148.782 158.898 148.12 158.665 147.401L160.842 138.621Z" fill="#F7A9A0"/>
<path d="M170.754 135.621C170.768 135.627 170.781 135.637 170.79 135.65C170.798 135.664 170.803 135.68 170.803 135.696C170.803 135.712 170.798 135.728 170.79 135.742C170.781 135.755 170.768 135.765 170.754 135.771C166.967 137.141 164.894 140.631 163.36 144.281C164.525 142.911 166.049 142.201 167.8 143.671C167.895 143.751 167.8 143.911 167.687 143.881C167.053 143.625 166.36 143.584 165.704 143.764C165.047 143.943 164.46 144.333 164.023 144.881C163.294 145.808 162.659 146.814 162.13 147.881C161.94 148.221 161.363 148.001 161.505 147.611C161.501 147.581 161.501 147.551 161.505 147.521C161.694 142.621 165.708 135.881 170.754 135.621Z" fill="#263238"/>
<path d="M164.884 151.121C164.912 151.483 164.837 151.845 164.669 152.162C164.501 152.478 164.248 152.735 163.942 152.899C163.635 153.063 163.29 153.127 162.949 153.084C162.608 153.04 162.287 152.89 162.027 152.653C161.767 152.417 161.579 152.103 161.488 151.754C161.396 151.404 161.405 151.034 161.514 150.689C161.622 150.345 161.825 150.043 162.096 149.82C162.368 149.598 162.696 149.466 163.038 149.441C163.494 149.408 163.943 149.566 164.288 149.881C164.634 150.195 164.848 150.641 164.884 151.121Z" fill="#8ABA41"/>
<path d="M153.221 173.271L150.268 188.911L129.886 173.911L126.099 180.771C126.099 180.771 148.034 206.711 147.873 205.371L151.328 191.711L161.069 198.811L156.516 177.031L153.221 173.271Z" fill="#EBEBEB"/>
<path d="M159.403 187.891C158.542 184.321 157.765 180.701 156.743 177.181C156.743 177.061 156.506 177.041 156.506 177.181C156.44 180.811 159.82 194.441 160.388 197.751H160.34C159.933 197.441 151.385 191.581 151.338 191.751C150.457 193.981 147.911 203.941 147.769 204.831C144.304 200.701 131.155 185.831 127.245 182.051C127.131 181.941 126.961 182.051 127.065 182.211C130.274 186.661 147.731 206.751 147.892 206.641C149.321 201.899 150.519 197.083 151.48 192.211C152.985 193.551 161.77 200.341 161.704 199.801C161.133 195.792 160.365 191.816 159.403 187.891Z" fill="#263238"/>
<path d="M244.08 98.1791C243.521 103.835 241.485 109.216 238.199 113.722C234.914 118.227 230.508 121.679 225.473 123.693C220.438 125.707 214.973 126.204 209.686 125.128C204.4 124.052 199.501 121.445 195.535 117.599L180.994 119.849L188.274 106.579C186.609 102.259 185.898 97.5953 186.195 92.9416C186.492 88.288 187.789 83.7671 189.988 79.7224C192.187 75.6778 195.23 72.2157 198.885 69.5994C202.541 66.9831 206.713 65.2813 211.084 64.6233C215.455 63.9653 219.911 64.3685 224.113 65.8022C228.314 67.2358 232.151 69.6623 235.332 72.8972C238.513 76.1321 240.954 80.0903 242.47 84.471C243.986 88.8518 244.536 93.5399 244.08 98.1791Z" fill="white"/>
<path d="M244.08 98.1792C243.52 103.837 241.492 109.221 238.22 113.739C237.407 114.863 236.528 115.932 235.588 116.939C234.617 117.918 233.593 118.836 232.521 119.689C230.377 121.402 228.015 122.789 225.506 123.809C223 124.854 220.368 125.527 217.687 125.809C216.343 125.941 214.992 125.968 213.645 125.889C212.297 125.858 210.955 125.71 209.631 125.449C204.271 124.408 199.292 121.811 195.251 117.949L195.592 118.059L181.051 120.389L180 120.559L180.53 119.559L187.763 106.259V106.779C186.064 102.38 185.344 97.627 185.658 92.8872C185.971 88.1474 187.31 83.5467 189.571 79.4393C191.836 75.3461 194.949 71.8485 198.678 69.2093C202.401 66.5884 206.643 64.9052 211.079 64.2893C215.486 63.6451 219.974 64.0802 224.196 65.5611C228.418 67.0419 232.261 69.5287 235.427 72.8293C238.589 76.0897 241.01 80.0645 242.508 84.455C244.007 88.8456 244.544 93.5379 244.08 98.1792ZM244.08 98.1792C244.544 93.5566 243.997 88.8831 242.482 84.5188C240.966 80.1546 238.522 76.2161 235.339 73.0067C232.155 69.7974 228.317 67.4028 224.119 66.0076C219.921 64.6124 215.476 64.2537 211.126 64.9593C206.82 65.641 202.718 67.3511 199.132 69.9593C195.58 72.5861 192.611 75.9985 190.432 79.9593C188.293 83.9373 187.034 88.3755 186.751 92.9408C186.467 97.5061 187.166 102.08 188.795 106.319L188.899 106.589L188.757 106.839L181.439 120.089L180.918 119.279L195.469 117.129H195.677L195.819 117.269C199.698 121.115 204.518 123.737 209.735 124.839C211.033 125.119 212.349 125.29 213.673 125.349C214.997 125.449 216.325 125.449 217.649 125.349C220.304 125.137 222.917 124.531 225.412 123.549C227.92 122.586 230.28 121.238 232.417 119.549C234.579 117.901 236.494 115.919 238.097 113.669C241.403 109.186 243.474 103.826 244.08 98.1792Z" fill="#263238"/>
<path d="M200.931 100.619L202.531 91.0195C202.579 90.7738 202.705 90.5525 202.887 90.3911C203.069 90.2297 203.297 90.1376 203.534 90.1295H205.664C206.031 90.1184 206.395 90.196 206.729 90.3564C207.062 90.5168 207.357 90.7557 207.59 91.0548C207.823 91.354 207.988 91.7055 208.073 92.0824C208.157 92.4593 208.159 92.8517 208.078 93.2295C207.951 93.9191 207.643 94.5569 207.188 95.0695C207.621 95.4069 207.952 95.8702 208.141 96.4029C208.329 96.9356 208.366 97.5147 208.249 98.0695C208.066 99.026 207.584 99.8896 206.88 100.521C206.175 101.152 205.29 101.515 204.367 101.549H201.584C201.478 101.548 201.374 101.52 201.28 101.469C201.185 101.418 201.104 101.344 201.04 101.255C200.977 101.165 200.935 101.061 200.916 100.95C200.897 100.84 200.902 100.727 200.931 100.619ZM206.611 98.0295C206.656 97.8243 206.655 97.6109 206.61 97.4058C206.565 97.2007 206.476 97.0093 206.35 96.8462C206.224 96.6831 206.064 96.5526 205.883 96.4647C205.702 96.3769 205.504 96.3341 205.304 96.3395H203.411L202.843 99.7095H204.736C205.169 99.6765 205.58 99.4942 205.905 99.1906C206.23 98.8871 206.451 98.4791 206.535 98.0295H206.611ZM205.427 91.9295H204.121L203.676 94.5395H204.992C205.337 94.5241 205.668 94.3866 205.931 94.1491C206.193 93.9115 206.373 93.5877 206.44 93.2295C206.478 93.0639 206.477 92.8912 206.438 92.726C206.399 92.5608 206.323 92.408 206.216 92.2804C206.109 92.1529 205.975 92.0544 205.825 91.9933C205.674 91.9322 205.512 91.9103 205.352 91.9295H205.427Z" fill="#263238"/>
<path d="M214.459 96.1591L213.711 100.619C213.663 100.863 213.539 101.083 213.359 101.244C213.178 101.406 212.953 101.499 212.717 101.509C212.61 101.515 212.504 101.495 212.406 101.45C212.308 101.405 212.221 101.337 212.152 101.25C212.084 101.164 212.035 101.062 212.009 100.953C211.984 100.843 211.983 100.729 212.007 100.619L212.764 96.1591L210.341 91.5591C210.251 91.3364 210.241 91.087 210.313 90.8571C210.384 90.6273 210.532 90.4326 210.729 90.3091C210.816 90.235 210.916 90.181 211.024 90.1503C211.132 90.1196 211.245 90.113 211.355 90.1309C211.466 90.1488 211.571 90.1907 211.666 90.2541C211.76 90.3175 211.841 90.4009 211.903 90.4991L213.919 94.3391L217.213 90.5291C217.353 90.3374 217.557 90.2104 217.783 90.1749C218.009 90.1395 218.239 90.1983 218.425 90.3391C218.506 90.4194 218.57 90.5163 218.614 90.6238C218.657 90.7313 218.68 90.847 218.68 90.9641C218.68 91.0811 218.657 91.1969 218.614 91.3043C218.57 91.4118 218.506 91.5087 218.425 91.5891L214.459 96.1591Z" fill="#263238"/>
<path d="M218.851 100.629L220.451 91.0392C220.499 90.7925 220.624 90.5699 220.806 90.4068C220.988 90.2438 221.216 90.1496 221.454 90.1392H226.491C226.598 90.135 226.704 90.1567 226.802 90.2028C226.9 90.2489 226.987 90.318 227.055 90.4049C227.124 90.4919 227.172 90.5942 227.198 90.7042C227.223 90.8141 227.224 90.9287 227.201 91.0392C227.155 91.2861 227.032 91.5098 226.852 91.6746C226.672 91.8395 226.445 91.9361 226.207 91.9492H222.032L221.521 94.9492H225.128C225.234 94.944 225.34 94.9654 225.438 95.0115C225.535 95.0576 225.621 95.1273 225.688 95.2149C225.755 95.3024 225.802 95.4054 225.825 95.5156C225.848 95.6258 225.845 95.7401 225.819 95.8492C225.775 96.0973 225.651 96.3217 225.468 96.484C225.285 96.6463 225.054 96.7365 224.815 96.7392H221.227L220.716 99.7392H224.891C224.999 99.7346 225.107 99.7564 225.205 99.8031C225.304 99.8497 225.391 99.9198 225.46 100.008C225.529 100.096 225.577 100.2 225.602 100.311C225.626 100.422 225.626 100.538 225.601 100.649C225.55 100.894 225.424 101.115 225.243 101.278C225.061 101.44 224.835 101.535 224.597 101.549H219.58C219.47 101.558 219.359 101.538 219.257 101.492C219.154 101.447 219.064 101.376 218.993 101.286C218.922 101.196 218.872 101.09 218.847 100.976C218.823 100.861 218.824 100.743 218.851 100.629Z" fill="#263238"/>
<path d="M229.586 100.229L229.52 100.589C229.473 100.834 229.35 101.055 229.17 101.217C228.989 101.378 228.762 101.471 228.526 101.479C228.42 101.483 228.315 101.461 228.218 101.416C228.121 101.37 228.035 101.302 227.966 101.217C227.898 101.131 227.849 101.03 227.823 100.921C227.797 100.812 227.795 100.699 227.816 100.589L227.873 100.229C227.921 99.9825 228.046 99.7599 228.228 99.5968C228.41 99.4338 228.638 99.3396 228.876 99.3292C228.983 99.325 229.09 99.3467 229.188 99.3928C229.286 99.4389 229.372 99.508 229.441 99.595C229.509 99.6819 229.558 99.7842 229.583 99.8942C229.609 100.004 229.61 100.119 229.586 100.229ZM231.12 91.0092L230.126 97.0092C230.078 97.2612 229.95 97.4888 229.765 97.6556C229.58 97.8224 229.347 97.9187 229.104 97.9292C228.996 97.9311 228.89 97.9068 228.793 97.8583C228.695 97.8097 228.61 97.7382 228.543 97.6493C228.476 97.5603 228.43 97.4563 228.407 97.3453C228.385 97.2343 228.386 97.1193 228.413 97.0092L229.416 91.0092C229.461 90.7588 229.584 90.5317 229.766 90.3647C229.948 90.1977 230.179 90.1006 230.419 90.0892C230.528 90.0858 230.635 90.1089 230.734 90.1567C230.832 90.2046 230.919 90.2759 230.986 90.3651C231.054 90.4542 231.102 90.5588 231.125 90.6706C231.148 90.7823 231.146 90.8982 231.12 91.0092Z" fill="#263238"/>
</g>
<defs>
<clipPath id="clip0_2_158">
<rect width="440" height="385" fill="white"/>
</clipPath>
</defs>
</svg>
