<svg width="400" height="400" viewBox="0 0 400 400" fill="none" xmlns="http://www.w3.org/2000/svg">
<path d="M293.66 163.81H251.57V171.99C251.57 179.63 245.37 185.83 237.73 185.83H213.51C187.76 185.83 165.44 172.85 154.37 153.84C133.29 158.62 117.56 177.48 117.56 199.99C117.56 226.14 138.76 247.35 164.92 247.35H352.64C378.8 247.35 400 226.15 400 199.99C400 150.61 382.03 105.38 352.27 70.47V70.45C315.55 27.38 260.93 0 200.01 0C195.15 0 190.3 0.17 185.52 0.54C188.18 0.8 190.7 1.2 193.16 1.67C190.71 1.2 188.19 0.79 185.52 0.54C185.5 0.54 185.48 0.52 185.45 0.54C81.93 8.01 0 94.61 0 200C0 217.72 2.32 234.92 6.67 251.28V251.32C29.38 336.82 107.46 400 200.01 400C253.42 400 303.66 379.18 341.45 341.4C359.94 322.91 359.94 292.92 341.43 274.43C322.94 255.94 292.95 255.94 274.46 274.43C254.57 294.32 228.13 305.28 200.02 305.28C141.96 305.28 94.73 258.05 94.73 199.99C94.73 160.68 116.39 126.33 148.4 108.25C154.66 81.43 181.44 61.28 213.52 61.28H237.74C244.63 61.28 250.35 66.31 251.39 72.94C251.41 73.07 251.41 73.18 251.43 73.28C251.45 73.43 251.45 73.56 251.47 73.69C251.54 74.08 251.55 74.46 251.55 74.85C251.57 75.04 251.57 75.13 251.57 75.13V83.31H293.66C299.06 83.31 303.46 87.7 303.46 93.11V94.9C303.46 100.32 299.07 104.69 293.66 104.69H251.57V142.4H293.66C299.06 142.4 303.46 146.79 303.46 152.19V154C303.46 159.4 299.07 163.79 293.66 163.79V163.81ZM201.48 3.77C200.29 3.39 199.06 3.04 197.81 2.72C199.06 3.05 200.29 3.39 201.48 3.77Z" fill="#8ABA42"/>
</svg>
