<svg width="20" height="16" viewBox="0 0 20 16" fill="none" xmlns="http://www.w3.org/2000/svg">
<g clip-path="url(#clip0_903_1974)">
<path d="M9.2857 13H1.4443C1.0644 13.0014 0.70025 13.1392 0.43016 13.3837C0.16007 13.6283 0.00561 13.9602 0 14.3079V14.839C0.00038 15.1894 0.15271 15.5254 0.42353 15.7731C0.69434 16.0208 1.0615 16.16 1.4443 16.16H9.2857C9.6685 16.16 10.0357 16.0208 10.3065 15.7731C10.5773 15.5254 10.7296 15.1894 10.73 14.839V14.3067C10.724 13.9591 10.5694 13.6276 10.2993 13.3832C10.0293 13.139 9.6654 13.0014 9.2857 13Z" fill="#2A2B2E"/>
<path d="M18.5571 7H1.44429C1.06378 7.00168 0.69921 7.13989 0.42908 7.38484C0.15895 7.6298 0.00486431 7.96193 0 8.30971V8.84116C0.000378636 9.19106 0.152711 9.52651 0.423526 9.7738C0.694341 10.0211 1.06148 10.16 1.44429 10.16H18.5571C18.7466 10.16 18.9342 10.1259 19.1093 10.0596C19.2844 9.99333 19.4434 9.89619 19.5774 9.77372C19.7114 9.65126 19.8177 9.50587 19.8902 9.34586C19.9627 9.18585 20 9.01435 20 8.84116V8.3084C19.9955 7.96086 19.8417 7.62888 19.5717 7.38408C19.3018 7.1393 18.9374 7.00134 18.5571 7Z" fill="#2A2B2E"/>
<path d="M14.2786 1H1.44429C1.06366 1.00135 0.69888 1.13949 0.42867 1.38463C0.15847 1.62976 0.0045 1.96221 0 2.31024V2.84192C0.00076 3.19173 0.15326 3.52699 0.42403 3.77409C0.6948 4.02121 1.06173 4.16 1.44429 4.16H14.2786C14.6611 4.16 15.0281 4.02121 15.2988 3.77409C15.5696 3.52699 15.7221 3.19173 15.7229 2.84192V2.30894C15.718 1.96113 15.5639 1.62901 15.2937 1.38416C15.0235 1.13931 14.6589 1.00134 14.2786 1Z" fill="#2A2B2E"/>
</g>
<defs>
<clipPath id="clip0_903_1974">
<rect width="20" height="16" fill="white"/>
</clipPath>
</defs>
</svg>
