<svg width="20" height="20" viewBox="0 0 20 20" fill="none" xmlns="http://www.w3.org/2000/svg">
<path d="M14.2786 1.72717H1.44429C1.06366 1.72865 0.698884 1.87972 0.428675 2.14779C0.158466 2.41586 0.00449714 2.77943 0 3.16003L0 3.74146C0.000756783 4.12401 0.153256 4.49064 0.42403 4.76088C0.694804 5.03111 1.06173 5.18289 1.44429 5.18289H14.2786C14.6611 5.18289 15.0281 5.03111 15.2988 4.76088C15.5696 4.49064 15.7221 4.12401 15.7229 3.74146V3.1586C15.718 2.77825 15.5639 2.41505 15.2937 2.14728C15.0235 1.87952 14.6589 1.72864 14.2786 1.72717Z" fill="#FFFDFA"/>
<path d="M18.5571 8.27148H1.44429C1.06378 8.27333 0.69921 8.42452 0.42908 8.69251C0.15895 8.96051 0.00486431 9.32386 0 9.70434L0 10.2858C0.000378636 10.6686 0.152711 11.0356 0.423526 11.3061C0.694341 11.5767 1.06148 11.7286 1.44429 11.7286H18.5571C18.7466 11.7286 18.9342 11.6913 19.1093 11.6188C19.2844 11.5463 19.4434 11.44 19.5774 11.306C19.7114 11.172 19.8177 11.013 19.8902 10.8379C19.9627 10.6629 20 10.4752 20 10.2858V9.70291C19.9955 9.32269 19.8417 8.95949 19.5717 8.69169C19.3018 8.42388 18.9374 8.27296 18.5571 8.27148Z" fill="#FFFDFA"/>
<path d="M9.28571 14.8171H1.44429C1.0644 14.8186 0.70025 14.9691 0.430161 15.2362C0.160071 15.5034 0.00561138 15.8659 0 16.2457L0 16.8257C0.000378636 17.2085 0.152711 17.5755 0.423526 17.8461C0.694341 18.1166 1.06148 18.2686 1.44429 18.2686H9.28571C9.66852 18.2686 10.0357 18.1166 10.3065 17.8461C10.5773 17.5755 10.7296 17.2085 10.73 16.8257V16.2443C10.724 15.8647 10.5694 15.5026 10.2993 15.2357C10.0293 14.9689 9.66536 14.8186 9.28571 14.8171Z" fill="#FFFDFA"/>
</svg>
