<svg width="16" height="16" viewBox="0 0 16 16" fill="none" xmlns="http://www.w3.org/2000/svg">
<path d="M14 10.6595L14.0373 9.91047C14.2898 9.92305 14.519 10.062 14.6469 10.28C14.7748 10.4981 14.7843 10.7659 14.6721 10.9924L14 10.6595ZM9.4439 2.05608L9.54592 1.31305C9.79645 1.34745 10.0128 1.50578 10.1213 1.73419C10.2298 1.96259 10.216 2.23031 10.0844 2.44627L9.4439 2.05608ZM9.37014 5C9.37014 7.63173 11.4382 9.7809 14.0373 9.91047L13.9627 11.4086C10.5691 11.2394 7.87014 8.43514 7.87014 5H9.37014ZM10.0844 2.44627C9.63131 3.19004 9.37014 4.06338 9.37014 5H7.87014C7.87014 3.78037 8.21114 2.63809 8.80339 1.66589L10.0844 2.44627ZM9.34188 2.79911C9.10629 2.76676 8.86538 2.75 8.62014 2.75V1.25C8.93383 1.25 9.24291 1.27145 9.54592 1.31305L9.34188 2.79911ZM8.62014 2.75C5.72065 2.75 3.37014 5.10051 3.37014 8H1.87014C1.87014 4.27208 4.89222 1.25 8.62014 1.25V2.75ZM3.37014 8C3.37014 10.8995 5.72065 13.25 8.62014 13.25V14.75C4.89222 14.75 1.87014 11.7279 1.87014 8H3.37014ZM8.62014 13.25C10.6829 13.25 12.4691 12.0605 13.3279 10.3267L14.6721 10.9924C13.57 13.2175 11.2747 14.75 8.62014 14.75V13.25Z" fill="white"/>
</svg>
